<svg xmlns="http://www.w3.org/2000/svg" viewBox="0 0 2400 652" role="img" aria-label="Iuris Justitia Creditor">
<path fill="#B82333" d="M0 0 C196.68 0 393.36 0 596 0 C596.774 4.641 597.128 8.513 597.137 13.159 C597.14 13.86 597.142 14.561 597.145 15.283 C597.153 17.632 597.153 19.98 597.154 22.329 C597.158 24.03 597.162 25.731 597.167 27.432 C597.179 32.106 597.185 36.781 597.189 41.455 C597.195 46.496 597.207 51.537 597.218 56.578 C597.242 68.747 597.257 80.917 597.27 93.087 C597.273 96.523 597.277 99.959 597.281 103.394 C597.307 124.726 597.329 146.057 597.341 167.388 C597.344 172.327 597.347 177.265 597.35 182.203 C597.351 183.431 597.352 184.658 597.352 185.923 C597.365 205.83 597.398 225.736 597.44 245.643 C597.482 266.073 597.506 286.502 597.511 306.932 C597.515 318.406 597.526 329.88 597.559 341.354 C597.587 351.12 597.598 360.886 597.587 370.652 C597.582 375.637 597.585 380.621 597.609 385.606 C597.632 390.166 597.631 394.726 597.612 399.286 C597.609 400.939 597.615 402.592 597.63 404.244 C597.649 406.486 597.637 408.726 597.618 410.967 C597.619 412.214 597.621 413.46 597.622 414.744 C596.788 419.11 595.673 420.496 592 423 C588.706 423.702 585.497 423.652 582.139 423.6 C581.134 423.604 580.129 423.608 579.093 423.612 C575.703 423.62 572.314 423.591 568.924 423.563 C566.478 423.561 564.032 423.562 561.586 423.564 C556.256 423.564 550.927 423.548 545.598 423.519 C537.673 423.475 529.749 423.46 521.824 423.451 C508.495 423.435 495.165 423.396 481.835 423.343 C468.635 423.292 455.434 423.25 442.234 423.222 C441.824 423.221 441.824 423.221 439.748 423.217 C435.582 423.208 431.416 423.2 427.249 423.191 C397.731 423.131 368.212 423.047 338.693 422.95 C310.014 422.856 281.334 422.772 252.655 422.702 C250.852 422.698 249.049 422.693 247.246 422.689 C232.596 422.653 217.945 422.618 203.295 422.583 C135.53 422.422 67.765 422.207 0 422 C0 282.74 0 143.48 0 0 Z M394.125 82.438 C390.322 87.72 391.406 95.804 392 102 C393.541 105.684 395.894 107.343 399.312 109.375 C404.317 110.539 408.366 110.545 413.188 108.938 C417.678 105.844 420.471 102.865 421.484 97.379 C421.772 91.622 420.964 87.237 417.555 82.527 C414.248 79.279 410.408 79.117 406 78.75 C401.674 79.111 397.631 79.749 394.125 82.438 Z M48 92 C47.959 93.666 47.957 95.334 48 97 C51.102 98.401 53.981 99.185 57.312 99.75 C62.434 100.822 66.315 103.305 70 107 C71.011 110.033 71.126 112.059 71.127 115.231 C71.13 116.315 71.133 117.399 71.136 118.515 C71.134 119.705 71.131 120.894 71.129 122.119 C71.131 123.371 71.133 124.623 71.135 125.914 C71.138 129.349 71.137 132.785 71.134 136.221 C71.132 139.816 71.134 143.411 71.136 147.006 C71.138 153.045 71.135 159.083 71.13 165.121 C71.125 172.102 71.127 179.083 71.132 186.063 C71.137 192.056 71.137 198.048 71.135 204.04 C71.133 207.62 71.133 211.199 71.136 214.779 C71.14 218.77 71.135 222.761 71.129 226.752 C71.131 227.939 71.133 229.126 71.136 230.349 C71.134 230.892 71.134 230.892 71.127 233.642 C71.127 234.586 71.126 235.529 71.126 236.502 C71.008 238.839 70.767 240.791 70 243 C68.25 244.062 68.25 244.062 66 245 C65.259 245.5 64.518 246 63.754 246.516 C60.574 248.23 58.276 248.49 54.688 248.688 C53.619 248.753 52.55 248.819 51.449 248.887 C51.045 248.905 51.045 248.905 49 249 C48.34 250.65 47.68 252.3 47 254 C49 256 49 256 52.005 256.247 C53.295 256.246 54.584 256.244 55.912 256.243 C56.623 256.245 57.334 256.247 58.066 256.249 C60.42 256.252 62.775 256.242 65.129 256.23 C66.76 256.229 68.392 256.229 70.023 256.229 C73.444 256.228 76.864 256.219 80.285 256.206 C84.679 256.189 89.073 256.185 93.467 256.186 C96.836 256.185 100.205 256.18 103.574 256.173 C105.195 256.17 106.815 256.168 108.436 256.167 C110.696 256.165 112.957 256.156 115.217 256.145 C116.506 256.141 117.794 256.138 119.122 256.134 C122 256 122 256 123 255 C123.041 253.334 123.043 251.666 123 250 C122.01 249.769 121.02 249.539 120 249.301 C104.451 245.524 104.451 245.524 100 241 C98.319 237.456 97.749 234.645 97.746 230.738 C97.74 229.698 97.735 228.658 97.729 227.586 C97.733 226.456 97.737 225.325 97.741 224.161 C97.738 222.962 97.734 221.763 97.731 220.528 C97.723 217.246 97.725 213.965 97.731 210.684 C97.736 207.244 97.732 203.804 97.729 200.364 C97.725 194.586 97.73 188.807 97.739 183.029 C97.75 176.359 97.747 169.69 97.736 163.021 C97.727 157.286 97.725 151.551 97.73 145.815 C97.734 142.394 97.734 138.973 97.727 135.552 C97.722 131.734 97.73 127.916 97.741 124.098 C97.737 122.972 97.733 121.845 97.729 120.685 C97.802 107.198 97.802 107.198 102.812 102.188 C107.194 99.353 112.012 98.996 117.109 98.457 C120 98 120 98 123 96 C123 94.68 123 93.36 123 92 C120.063 90.531 117.459 90.873 114.179 90.871 C113.479 90.869 112.778 90.867 112.055 90.865 C109.734 90.861 107.412 90.864 105.09 90.867 C103.481 90.867 101.872 90.866 100.263 90.864 C96.889 90.863 93.516 90.865 90.142 90.87 C85.809 90.875 81.475 90.872 77.141 90.866 C73.819 90.862 70.497 90.864 67.174 90.866 C65.576 90.867 63.977 90.866 62.379 90.864 C60.149 90.861 57.92 90.865 55.691 90.871 C54.42 90.871 53.15 90.872 51.84 90.873 C49 91 49 91 48 92 Z M463.047 147.68 C456.633 154.174 453.872 162.529 453.562 171.562 C453.862 178.452 454.867 185.333 459.25 190.812 C460.158 191.534 461.065 192.256 462 193 C463.169 194.019 464.335 195.04 465.5 196.062 C466.103 196.567 466.707 197.071 467.328 197.59 C468.673 198.725 469.97 199.917 471.25 201.125 C477.156 205.152 484.176 206.858 491.062 208.5 C502.37 211.287 509.37 214.844 517 224 C519.267 227.821 519.513 230.533 519 235 C515.692 243.092 510.994 247.506 503 251 C494.616 252.103 486.199 251.698 479 247 C471.244 240.695 465.62 233.695 461.029 224.813 C458.551 220.185 458.551 220.185 455.246 219.074 C454.875 219.062 454.875 219.062 453 219 C450.555 222.667 450.814 225.259 450.988 229.477 C451.011 230.202 451.034 230.928 451.057 231.676 C451.107 233.208 451.162 234.739 451.221 236.271 C451.312 238.623 451.387 240.975 451.459 243.328 C451.509 244.815 451.561 246.302 451.613 247.789 C451.636 248.496 451.659 249.204 451.683 249.932 C451.884 254.884 451.884 254.884 453 256 C458.387 256.479 458.387 256.479 461 254.438 C463 253 463 253 465.812 253.125 C469 254 469 254 472.242 255.414 C488.802 262.608 502.391 260.923 519 255 C524.693 252.091 528.668 247.846 531.375 242.062 C531.581 241.382 531.788 240.701 532 240 C532.66 240 533.32 240 534 240 C538.841 232.255 537.637 220.117 535.828 211.546 C534.421 207.221 531.843 204.441 528.625 201.312 C527.972 200.668 527.32 200.024 526.647 199.36 C519.505 192.81 511.469 190.127 502.263 187.617 C494.902 185.61 488.18 183.561 482 179 C480.948 178.526 479.896 178.051 478.812 177.562 C475.404 175.669 474.46 174.612 473 171 C471.555 164.929 471.505 160.162 474.688 154.691 C477.444 151.139 480.817 149.394 485 148 C487.619 147.852 490.193 147.769 492.812 147.75 C493.512 147.729 494.211 147.709 494.932 147.688 C501.382 147.639 505.06 149.327 509.887 153.488 C510.811 154.42 511.735 155.352 512.688 156.312 C513.619 157.237 514.551 158.161 515.512 159.113 C518.638 162.74 520.459 166.26 521.875 170.812 C523 173 523 173 525.438 174 C528 174 528 174 529.68 172.723 C531 171 531 171 530.688 167.438 C530.566 166.656 530.445 165.875 530.32 165.07 C529.813 160.211 529.994 155.352 530.126 150.472 C530.195 145.89 529.757 142.32 528 138 C525.812 137.75 525.812 137.75 523 138 C522.618 138.34 522.618 138.34 520.688 140.062 C517.447 142.399 516.02 141.976 512.204 141.389 C508.008 140.649 503.827 139.852 499.648 139.018 C487.178 136.593 472.792 139.298 463.047 147.68 Z M324 151 C320.688 152.312 320.688 152.312 318 153 C318.095 152.301 318.191 151.603 318.289 150.883 C318.4 149.973 318.511 149.063 318.625 148.125 C318.741 147.22 318.857 146.315 318.977 145.383 C318.984 144.596 318.992 143.81 319 143 C316.362 140.362 314.681 140.399 311 140 C306.762 140.049 302.549 140.364 298.322 140.669 C296.308 140.813 294.294 140.939 292.279 141.064 C291.643 141.109 291.643 141.109 288.426 141.332 C287.265 141.412 286.104 141.491 284.907 141.573 C282 142 282 142 279 144 C279.137 146.316 279.137 146.316 280 149 C282.582 150.59 282.582 150.59 285.812 151.938 C291.038 154.121 293.271 156.006 296 161 C296.385 163.74 296.559 166.075 296.533 168.806 C296.542 169.565 296.551 170.323 296.56 171.105 C296.582 173.599 296.575 176.092 296.566 178.586 C296.572 180.329 296.578 182.073 296.585 183.816 C296.596 187.466 296.591 191.116 296.576 194.766 C296.559 199.428 296.583 204.09 296.618 208.753 C296.64 212.353 296.638 215.952 296.63 219.552 C296.629 221.271 296.636 222.989 296.651 224.707 C296.773 241.505 296.773 241.505 291 248 C288.395 249.078 288.395 249.078 285.812 249.25 C283.207 249.453 283.207 249.453 281 250 C279.637 251.922 279.637 251.922 279 254 C279.33 254.66 279.66 255.32 280 256 C300.13 256 320.26 256 341 256 C341.165 255.34 341.165 255.34 342 252 C340.871 250.285 340.871 250.285 339 249 C336.66 248.559 336.66 248.559 334.062 248.438 C328.63 248.167 326.288 247.306 322.417 243.38 C318.384 237.567 319.283 230.288 319.336 223.504 C319.333 221.986 319.328 220.468 319.321 218.95 C319.314 215.777 319.325 212.605 319.348 209.431 C319.377 205.382 319.36 201.334 319.33 197.284 C319.312 194.151 319.318 191.019 319.331 187.887 C319.334 186.395 319.33 184.903 319.319 183.41 C319.266 174.899 319.611 168.9 325 162 C325 161.34 325 160.68 325 160 C325.701 159.752 326.403 159.505 327.125 159.25 C330 158 330 158 332.875 155.938 C336.356 153.779 338.955 153.324 343 153 C343.014 153.736 343.028 154.472 343.043 155.23 C343.433 163.206 343.433 163.206 346.188 167.062 C350.197 169.825 353.155 171.113 358.062 170.812 C361.392 169.892 363.37 169.275 366 167 C369.363 160.858 369.531 154.726 368 148 C366.202 143.775 364.102 142.001 360 140 C348.032 135.46 332.268 142.509 324 151 Z M205 143 C204.67 144.65 204.34 146.3 204 148 C206.801 149.533 209.237 150.335 212.375 150.875 C217.148 151.882 221.32 153.49 224.143 157.708 C225.304 160.812 225.262 163.487 225.275 166.801 C225.28 167.476 225.285 168.151 225.29 168.847 C225.304 171.074 225.303 173.3 225.301 175.527 C225.305 177.079 225.309 178.631 225.314 180.183 C225.321 183.433 225.321 186.684 225.316 189.934 C225.31 194.095 225.327 198.255 225.35 202.416 C225.365 205.62 225.366 208.824 225.363 212.029 C225.363 213.562 225.368 215.096 225.378 216.63 C225.391 218.777 225.384 220.923 225.372 223.07 C225.373 224.29 225.374 225.511 225.374 226.768 C224.806 231.672 222.981 234.137 219.328 237.352 C205.127 247.84 205.127 247.84 194.855 247.543 C189.1 246.449 184.084 243.012 180.746 238.188 C177.895 232.017 177.847 225.199 177.811 218.532 C177.802 217.704 177.794 216.875 177.785 216.022 C177.768 214.233 177.753 212.444 177.74 210.655 C177.719 207.827 177.692 204.999 177.663 202.171 C177.593 195.155 177.534 188.138 177.474 181.122 C177.423 175.18 177.368 169.238 177.308 163.297 C177.281 160.504 177.261 157.712 177.24 154.919 C177.224 153.22 177.207 151.52 177.189 149.821 C177.185 149.039 177.181 148.257 177.177 147.452 C177.114 142.114 177.114 142.114 176 141 C173.634 140.896 171.304 140.859 168.938 140.875 C168.227 140.878 167.516 140.882 166.783 140.885 C146.224 141.08 146.224 141.08 137 144 C137 145.32 137 146.64 137 148 C137.724 148.352 138.449 148.704 139.195 149.066 C140.162 149.56 141.129 150.054 142.125 150.562 C143.076 151.038 144.028 151.514 145.008 152.004 C148.932 154.622 151.799 156.742 154 161 C154.879 166.33 154.791 171.621 154.734 177.004 C154.741 178.571 154.75 180.139 154.762 181.706 C154.786 185.819 154.777 189.931 154.759 194.044 C154.736 200.629 154.763 207.214 154.792 213.798 C154.797 216.091 154.787 218.382 154.775 220.675 C154.775 222.087 154.776 223.5 154.776 224.912 C154.772 226.139 154.767 227.366 154.762 228.63 C155.35 236.954 159.756 246.557 165 253 C175.341 260.159 187.799 260.383 199.867 258.348 C207.481 256.44 212.693 253.792 218 248 C220 246 220 246 222.625 245.875 C223.409 245.916 224.192 245.957 225 246 C225.061 246.638 225.121 247.276 225.184 247.934 C225.267 248.76 225.351 249.586 225.438 250.438 C225.519 251.261 225.6 252.085 225.684 252.934 C226 255 226 255 227 256 C229.462 256.126 231.895 256.189 234.359 256.203 C235.101 256.209 235.842 256.215 236.606 256.22 C238.18 256.23 239.753 256.236 241.327 256.24 C243.726 256.25 246.125 256.281 248.523 256.312 C250.052 256.319 251.581 256.324 253.109 256.328 C253.824 256.34 254.539 256.353 255.275 256.366 C259.704 256.346 262.428 255.633 266 253 C265.863 251.195 265.863 251.195 265 249 C262.418 247.367 262.418 247.367 259.188 245.875 C258.129 245.377 257.071 244.88 255.98 244.367 C254.229 243.564 252.465 242.786 250.676 242.07 C249 241 249 241 248.405 239.189 C248.009 237.046 247.862 235.089 247.842 232.912 C247.832 232.108 247.822 231.303 247.812 230.473 C247.806 229.6 247.801 228.726 247.795 227.825 C247.785 226.898 247.775 225.971 247.765 225.016 C247.733 221.953 247.708 218.891 247.684 215.828 C247.663 213.704 247.642 211.58 247.621 209.456 C247.565 203.866 247.516 198.276 247.468 192.687 C247.418 186.983 247.362 181.278 247.307 175.574 C247.199 164.383 247.098 153.191 247 142 C234.216 137.553 218.23 141.143 205 143 Z M397.336 141.075 C394.619 141.159 391.904 141.263 389.188 141.375 C388.755 141.39 388.755 141.39 386.565 141.468 C385.753 141.507 384.942 141.546 384.105 141.586 C383.385 141.617 382.665 141.649 381.923 141.681 C380 142 380 142 377 144 C376.812 146.625 376.812 146.625 377 149 C378.956 149.838 380.915 150.67 382.875 151.5 C383.966 151.964 385.056 152.428 386.18 152.906 C389 154 389 154 391 154 C391.289 154.784 391.577 155.567 391.875 156.375 C393 159 393 159 395 161 C395.209 163.527 395.294 165.946 395.291 168.476 C395.294 168.861 395.294 168.861 395.311 170.812 C395.33 173.369 395.334 175.927 395.336 178.484 C395.342 180.261 395.349 182.037 395.356 183.814 C395.368 187.543 395.372 191.272 395.371 195.001 C395.37 199.774 395.398 204.546 395.432 209.319 C395.454 212.991 395.458 216.662 395.457 220.334 C395.46 222.093 395.469 223.852 395.484 225.611 C395.504 228.077 395.498 230.541 395.486 233.007 C395.497 233.73 395.508 234.454 395.52 235.199 C395.458 240.24 394.209 243.141 391 247 C388.273 248.172 388.273 248.172 385.375 248.75 C380.159 249.841 380.159 249.841 378 252 C378.33 253.32 378.66 254.64 379 256 C397.48 256 415.96 256 435 256 C435.33 254.35 435.66 252.7 436 251 C433.643 248.643 432.944 248.78 429.75 248.438 C426.119 247.604 424.08 246.696 421.749 243.76 C416.799 235.758 418.195 225.468 418.266 216.41 C418.259 214.298 418.25 212.186 418.238 210.073 C418.214 204.535 418.223 198.998 418.241 193.46 C418.264 184.572 418.237 175.684 418.208 166.797 C418.203 163.691 418.213 160.586 418.225 157.48 C418.225 155.588 418.224 153.697 418.224 151.805 C418.231 150.938 418.238 150.071 418.246 149.178 C418.227 143.227 418.227 143.227 416 141 C409.809 140.523 403.54 140.901 397.336 141.075 Z "  transform="translate(0,0)"/>
<path fill="#B82333" d="M0 0 C1.026 -0.005 2.051 -0.01 3.108 -0.015 C3.675 -0.012 3.675 -0.012 6.542 0 C7.748 -0.002 8.953 -0.005 10.195 -0.008 C13.568 -0.013 16.941 -0.01 20.313 -0.002 C23.986 0.003 27.659 -0.003 31.332 -0.007 C37.803 -0.013 44.274 -0.012 50.745 -0.006 C60.432 0.004 70.12 0.001 79.807 -0.003 C96.314 -0.011 112.821 -0.009 129.328 -0.002 C146.065 0.005 162.802 0.008 179.539 0.005 C180.595 0.005 181.65 0.005 182.738 0.005 C188.12 0.004 193.502 0.003 198.884 0.002 C237.881 -0.004 276.877 -0.001 315.873 0.008 C354.505 0.016 393.137 0.021 431.769 0.021 C434.192 0.021 436.615 0.021 439.039 0.021 C448.776 0.021 458.514 0.021 468.252 0.021 C495.475 0.021 522.699 0.021 549.922 0.022 C551.162 0.022 552.402 0.022 553.679 0.022 C593.202 0.023 632.725 0.027 672.248 0.034 C673.53 0.034 674.813 0.034 676.134 0.034 C696.961 0.038 717.789 0.041 738.616 0.045 C821.227 0.059 903.838 0.065 986.449 0.065 C989.06 0.064 991.671 0.064 994.282 0.064 C999.498 0.064 1004.714 0.064 1009.93 0.064 C1021.625 0.064 1033.319 0.064 1045.013 0.064 C1047.603 0.064 1050.193 0.064 1052.783 0.064 C1121.928 0.064 1191.073 0.068 1260.217 0.074 C1260.821 0.074 1260.821 0.074 1263.874 0.075 C1285.882 0.077 1285.882 0.077 1296.632 0.078 C1323.198 0.08 1349.763 0.082 1376.329 0.083 C1376.928 0.083 1376.928 0.083 1379.961 0.083 C1384.791 0.083 1389.621 0.083 1394.452 0.083 C1439.218 0.083 1483.985 0.087 1528.752 0.097 C1533.037 0.098 1537.323 0.099 1541.608 0.1 C1542.66 0.1 1543.712 0.101 1544.796 0.101 C1561.492 0.104 1578.189 0.105 1594.885 0.103 C1611.278 0.102 1627.671 0.105 1644.064 0.111 C1653.691 0.115 1663.317 0.116 1672.944 0.113 C1679.323 0.111 1685.702 0.113 1692.08 0.118 C1695.706 0.12 1699.331 0.121 1702.957 0.118 C1706.84 0.114 1710.722 0.118 1714.605 0.123 C1715.739 0.121 1716.872 0.119 1718.04 0.116 C1719.065 0.119 1720.091 0.122 1721.147 0.124 C1721.59 0.124 1721.59 0.124 1723.832 0.125 C1726.074 0.25 1726.074 0.25 1729.074 1.25 C1729.404 3.23 1729.734 5.21 1730.074 7.25 C1726.534 8.85 1723.781 9.5 1719.904 9.5 C1719.39 9.503 1719.39 9.503 1716.786 9.515 C1715.66 9.51 1714.533 9.505 1713.372 9.501 C1712.166 9.503 1710.959 9.506 1709.716 9.509 C1706.35 9.515 1702.984 9.512 1699.618 9.505 C1695.949 9.499 1692.28 9.506 1688.611 9.51 C1682.15 9.517 1675.689 9.516 1669.228 9.511 C1659.555 9.503 1649.883 9.506 1640.21 9.512 C1623.728 9.521 1607.245 9.521 1590.763 9.515 C1574.052 9.51 1557.342 9.508 1540.632 9.513 C1539.577 9.513 1538.523 9.513 1537.437 9.513 C1533.143 9.514 1528.85 9.516 1524.556 9.517 C1484.536 9.527 1444.515 9.528 1404.494 9.522 C1403.307 9.522 1402.121 9.522 1400.898 9.522 C1399.709 9.522 1398.521 9.522 1397.296 9.521 C1361.121 9.516 1324.946 9.515 1288.771 9.517 C1286.351 9.518 1283.931 9.518 1281.511 9.518 C1271.786 9.519 1262.061 9.519 1252.336 9.52 C1225.149 9.522 1197.962 9.523 1170.775 9.523 C1169.537 9.523 1168.299 9.523 1167.023 9.523 C1127.556 9.524 1088.089 9.522 1048.621 9.518 C1047.341 9.518 1046.06 9.517 1044.741 9.517 C1023.944 9.515 1003.147 9.513 982.35 9.51 C899.862 9.5 817.373 9.501 734.885 9.511 C714.099 9.513 693.312 9.515 672.526 9.518 C671.886 9.518 671.886 9.518 668.648 9.518 C629.223 9.522 589.797 9.524 550.372 9.523 C549.135 9.523 547.898 9.523 546.623 9.523 C519.466 9.523 492.31 9.521 465.153 9.52 C455.437 9.519 445.721 9.518 436.004 9.518 C433.587 9.518 431.17 9.517 428.752 9.517 C392.585 9.515 356.417 9.517 320.249 9.522 C319.063 9.522 317.876 9.522 316.653 9.522 C316.061 9.522 316.061 9.522 313.064 9.523 C273.161 9.528 233.259 9.526 193.356 9.516 C189.076 9.515 184.796 9.514 180.516 9.513 C179.465 9.512 178.415 9.512 177.333 9.512 C160.663 9.508 143.994 9.511 127.325 9.516 C110.955 9.521 94.586 9.52 78.216 9.51 C68.605 9.505 58.995 9.505 49.384 9.513 C43.013 9.518 36.642 9.516 30.272 9.507 C26.653 9.503 23.033 9.502 19.414 9.509 C15.535 9.517 11.655 9.51 7.775 9.501 C6.649 9.505 5.522 9.51 4.361 9.515 C3.332 9.51 2.303 9.505 1.243 9.5 C0.801 9.5 0.801 9.5 -1.437 9.5 C-4.225 9.22 -6.383 8.4 -8.926 7.25 C-8.614 4.875 -8.614 4.875 -7.926 2.25 C-4.665 0.076 -3.77 -0 0 0 Z "  transform="translate(656.9263039529324,279.7501850016415)"/>
<path fill="#B82333" d="M0 0 C6.621 0.047 10.244 3.34 15.035 7.621 C17.316 10.692 17.29 12.402 16.906 16.141 C14.469 17.078 14.469 17.078 10.906 17.141 C8.75 15.613 8.75 15.613 6.469 13.641 C2.331 10.169 2.331 10.169 -1.781 9.891 C-6.13 11.532 -9.853 13.571 -11.969 17.953 C-12.01 18.675 -12.051 19.397 -12.094 20.141 C-12.176 21.399 -12.259 22.657 -12.344 23.953 C-12.272 28.225 -11.224 31.395 -9.094 35.141 C-6.358 37.433 -4.616 38.064 -1.094 38.578 C2.708 38.024 4.206 36.841 6.906 34.141 C7.381 33.233 7.855 32.326 8.344 31.391 C8.602 31.019 8.602 31.019 9.906 29.141 C12.969 28.703 12.969 28.703 15.906 29.141 C16.566 29.801 17.226 30.461 17.906 31.141 C17.764 34.905 17.248 37.529 15.406 40.828 C10.599 45.275 5.329 47.359 -1.219 47.578 C-6.315 47.356 -10.731 46.28 -14.617 42.762 C-20.541 36.258 -21.849 29.966 -21.757 21.389 C-21.43 14.997 -19.631 10.751 -15.094 6.141 C-14.848 5.875 -14.848 5.875 -13.605 4.531 C-9.377 0.474 -5.558 0.373 0 0 Z "  transform="translate(699.09375,304.859375)"/>
<path fill="#B82333" d="M0 0 C0.688 2.25 0.688 2.25 1 5 C-0.438 7.312 -0.438 7.312 -2 9 C-4.375 8.688 -4.375 8.688 -7 8 C-9 5 -9 5 -8.75 2.375 C-8.503 1.591 -8.255 0.808 -8 0 C-5.138 -1.431 -3.066 -0.6 0 0 Z "  transform="translate(941,307)"/>
<path fill="#B82333" d="M0 0 C3.312 -0.25 3.312 -0.25 7 0 C13.347 6.851 15.895 17.151 18 26 C18.99 26 19.98 26 21 26 C21.098 25.42 21.196 24.84 21.297 24.242 C22.322 18.888 23.885 15.531 27 11 C27.832 8.67 28.538 6.339 29.191 3.953 C30 2 30 2 33 0 C38.556 0.556 38.556 0.556 40 2 C40.249 4.59 40.431 7.153 40.562 9.75 C40.603 10.54 40.643 11.329 40.685 12.143 C40.982 18.551 41.169 24.96 41.25 31.375 C41.271 32.272 41.293 33.169 41.315 34.093 C41.348 40.403 41.348 40.403 39.484 43.602 C38.995 44.063 38.505 44.525 38 45 C36.125 44.688 36.125 44.688 34 44 C31.558 40.336 31.806 37.655 31.938 33.438 C32.12 26.241 32.12 26.241 31 24 C30.758 24.606 30.515 25.212 30.266 25.836 C29.562 27.595 28.857 29.354 28.152 31.113 C27.389 33.025 26.631 34.939 25.879 36.855 C25.527 37.749 25.175 38.642 24.812 39.562 C24.489 40.389 24.165 41.215 23.832 42.066 C23 44 23 44 22 45 C19.625 45.312 19.625 45.312 17 45 C14.545 42.271 13.264 39.481 12 36.062 C10.618 32.454 9.052 29.283 7 26 C7 25.34 7 24.68 7 24 C6.34 24 5.68 24 5 24 C5 30.27 5 36.54 5 43 C3.68 43.66 2.36 44.32 1 45 C-0.477 44.029 -0.477 44.029 -2 42 C-2.286 39.105 -2.396 36.429 -2.363 33.535 C-2.364 32.705 -2.364 31.876 -2.365 31.021 C-2.362 29.267 -2.353 27.512 -2.336 25.758 C-2.313 23.076 -2.316 20.395 -2.322 17.713 C-2.317 16.008 -2.31 14.303 -2.301 12.598 C-2.302 11.797 -2.303 10.995 -2.304 10.17 C-2.255 6.319 -2.188 3.261 0 0 Z "  transform="translate(1076,306)"/>
<path fill="#B82333" d="M0 0 C2.962 2.658 3.87 4.586 5.062 8.375 C4.988 12.724 3.852 14.181 1.031 17.324 C0 19 0 19 0.344 21.207 C0.56 21.799 0.777 22.39 1 23 C2.32 22.835 2.32 22.835 9 22 C10.234 24.468 10.288 26.437 10.5 29.188 C10.767 32.519 11.098 35.774 11.688 39.062 C11.739 39.547 11.739 39.547 12 42 C11.34 42.66 10.68 43.32 10 44 C7.582 43.682 5.381 43.125 3.066 42.363 C1 42 1 42 -2.688 43.5 C-7.352 45.385 -11.165 45.289 -16 44 C-20.15 42.079 -22.172 40.265 -23.938 36.125 C-25.089 32.409 -25.332 29.746 -24 26 C-21.5 23.188 -21.5 23.188 -19 21 C-18 20 -18 20 -17.812 17.125 C-18 14 -18 14 -20 11 C-19.868 6.116 -17.357 3.357 -14 0 C-9.104 -2.611 -4.949 -2.216 0 0 Z M-9 8 C-8.67 9.32 -8.34 10.64 -8 12 C-7.34 11.67 -6.68 11.34 -6 11 C-6 10.01 -6 9.02 -6 8 C-6.99 8 -7.98 8 -9 8 Z M-15 28 C-14.852 31.48 -14.597 33.362 -12.188 35.938 C-10 37 -10 37 -7.75 36.688 C-7.172 36.461 -6.595 36.234 -6 36 C-4.992 32.792 -4.856 31.359 -6.125 28.188 C-8 26 -8 26 -10.562 25.562 C-13 26 -13 26 -15 28 Z "  transform="translate(1803,307)"/>
<path fill="#B82333" d="M0 0 C2.343 0.256 4.678 0.593 7 1 C8.469 3.937 8.218 6.936 8.281 10.16 C8.29 10.513 8.29 10.513 8.337 12.297 C8.416 15.319 8.484 18.341 8.552 21.363 C8.604 23.566 8.661 25.769 8.719 27.973 C8.732 28.661 8.746 29.35 8.76 30.059 C8.887 34.887 8.887 34.887 10 36 C11.75 35.994 13.501 35.945 15.25 35.875 C18.735 35.852 20.89 35.959 24.188 37.188 C26 39 26 39 26.5 41.562 C26 44 26 44 23 46 C20.208 46.197 17.539 46.279 14.75 46.25 C14.011 46.258 13.273 46.265 12.512 46.273 C7.655 46.256 3.572 45.682 -1 44 C-2.618 40.763 -2.307 37.195 -2.422 33.633 C-2.45 32.802 -2.478 31.971 -2.506 31.114 C-2.563 29.354 -2.616 27.594 -2.667 25.833 C-2.749 23.142 -2.853 20.452 -2.957 17.762 C-3.009 16.052 -3.06 14.342 -3.109 12.633 C-3.144 11.829 -3.178 11.024 -3.213 10.196 C-3.291 6.751 -3.276 4.465 -1.493 1.46 C-1 0.979 -0.508 0.497 0 0 Z "  transform="translate(1901,306)"/>
<path fill="#B82333" d="M0 0 C-0.25 2.375 -0.25 2.375 -1 5 C-4.722 7.869 -9.291 7.221 -13.75 7.125 C-14.543 7.116 -15.336 7.107 -16.152 7.098 C-18.102 7.074 -20.051 7.038 -22 7 C-22.021 8.299 -22.041 9.599 -22.062 10.938 C-22.074 11.668 -22.086 12.399 -22.098 13.152 C-22 15 -22 15 -21 16 C-17.469 15.991 -13.947 15.867 -10.418 15.742 C-6.829 16.013 -5.547 16.549 -3 19 C-3.875 23.875 -3.875 23.875 -5 25 C-6.34 25.156 -7.688 25.25 -9.035 25.316 C-9.844 25.358 -10.653 25.4 -11.486 25.443 C-12.336 25.483 -13.187 25.522 -14.062 25.562 C-14.917 25.606 -15.771 25.649 -16.65 25.693 C-18.767 25.8 -20.883 25.9 -23 26 C-22.977 26.976 -22.954 27.952 -22.93 28.957 C-22.921 29.593 -22.921 29.593 -22.875 32.812 C-22.852 34.077 -22.829 35.342 -22.805 36.645 C-23 40 -23 40 -25 43 C-27.938 42.625 -27.938 42.625 -31 42 C-32.652 38.696 -32.206 35.013 -32.238 31.379 C-32.246 30.523 -32.254 29.668 -32.263 28.786 C-32.277 26.974 -32.287 25.163 -32.295 23.351 C-32.312 20.577 -32.356 17.803 -32.4 15.029 C-32.411 13.271 -32.419 11.512 -32.426 9.754 C-32.443 8.923 -32.461 8.091 -32.479 7.235 C-32.457 1.51 -32.457 1.51 -30.197 -1.013 C-26.975 -2.461 -23.79 -2.619 -20.312 -2.75 C-19.6 -2.785 -18.888 -2.819 -18.154 -2.855 C-5.075 -3.383 -5.075 -3.383 0 0 Z "  transform="translate(2182,308)"/>
<path fill="#B82333" d="M0 0 C2.625 0.938 2.625 0.938 5 2 C5.201 5.716 5.152 6.772 3 10 C1.125 9.688 1.125 9.688 -1 9 C-3 6 -3 6 -2.75 3.375 C-2.503 2.591 -2.255 1.808 -2 1 C-1.34 0.67 -0.68 0.34 0 0 Z "  transform="translate(2220,306)"/>
<path fill="#B82333" d="M0 0 C2.066 2.066 1.212 6.424 1.238 9.27 C1.246 10.102 1.254 10.935 1.263 11.792 C1.277 13.559 1.287 15.325 1.295 17.091 C1.312 19.791 1.356 22.49 1.4 25.189 C1.411 26.904 1.419 28.618 1.426 30.332 C1.443 31.139 1.461 31.947 1.479 32.779 C1.465 36.386 1.335 38.543 -0.828 41.495 C-5.491 44.726 -11.52 44.257 -17 44 C-22.409 42.594 -26.024 39.762 -29 35 C-30.789 29.15 -30.908 23.286 -28.312 17.688 C-26.04 13.628 -23.167 11.084 -19 9 C-17.463 8.775 -15.92 8.592 -14.375 8.438 C-13.558 8.354 -12.74 8.27 -11.898 8.184 C-11.272 8.123 -10.645 8.062 -10 8 C-9.918 6.721 -9.835 5.442 -9.75 4.125 C-9.253 0.235 -9.253 0.235 -7.25 -1.625 C-4.272 -2.121 -2.653 -1.362 0 0 Z M-18.75 20.688 C-20.252 22.691 -21 24 -21.688 26.438 C-20.608 30.463 -17.854 33.053 -15 36 C-13.125 35.75 -13.125 35.75 -11 35 C-8.251 31.02 -8.445 26.652 -9 22 C-10.25 19.438 -10.25 19.438 -12 18 C-16 18 -16 18 -18.75 20.688 Z "  transform="translate(895,308)"/>
<path fill="#B82333" d="M0 0 C1.65 0 3.3 0 5 0 C9.89 11.305 9.89 11.305 10 17 C9.034 19.017 8.033 21.017 7 23 C6.291 28.473 7.607 31.5 10.176 36.133 C11.306 38.694 10.967 40.422 10 43 C7.312 43.75 7.312 43.75 4 44 C0.625 41.9 -0.734 40.798 -2 37 C-2.206 34.08 -2.373 31.173 -2.5 28.25 C-2.694 23.875 -2.886 19.643 -3.652 15.324 C-4.053 11.49 -3.395 9.156 -2.062 5.562 C-1.682 4.512 -1.302 3.461 -0.91 2.379 C-0.61 1.594 -0.309 0.809 0 0 Z "  transform="translate(980,308)"/>
<path fill="#B82333" d="M0 0 C2.348 0.18 2.348 0.18 5 1 C7.83 5.458 9.379 10.261 8.25 15.438 C7.838 16.613 7.425 17.789 7 19 C6.393 25.888 6.574 30.892 10 37 C9.688 39.875 9.688 39.875 9 42 C6.375 42.812 6.375 42.812 3 43 C0.005 41.279 -2.437 39.126 -4 36 C-4.208 33.184 -4.374 30.382 -4.5 27.562 C-4.866 19.403 -4.866 19.403 -6 16 C-6.875 9.751 -4.837 6.61 -1.312 1.723 C-0.879 1.154 -0.446 0.586 0 0 Z "  transform="translate(1688,309)"/>
<path fill="#B82333" d="M0 0 C3.968 2.071 6.309 3.865 7.75 8.188 C7.955 11.524 7.851 14.848 7.75 18.188 C7.733 19.018 7.716 19.848 7.699 20.703 C7.468 24.689 7.292 26.584 4.562 29.625 C-1.908 33.22 -7.052 33.794 -14.25 32.188 C-19.071 29.777 -21.974 27.09 -24.25 22.188 C-24.997 16.71 -25.206 11.208 -22.625 6.188 C-16.763 -1.218 -8.774 -4.234 0 0 Z M-8.25 6.188 C-8.91 6.848 -9.57 7.507 -10.25 8.188 C-10.25 9.178 -10.25 10.168 -10.25 11.188 C-8.6 11.188 -6.95 11.188 -5.25 11.188 C-5.25 9.868 -5.25 8.548 -5.25 7.188 C-6.24 6.858 -7.23 6.527 -8.25 6.188 Z M-11.25 18.188 C-11.58 18.683 -11.58 18.683 -13.25 21.188 C-11.93 22.837 -10.61 24.488 -9.25 26.188 C-4.936 25.708 -3.084 24.442 -0.25 21.188 C-0.58 20.197 -0.91 19.207 -1.25 18.188 C-2.874 18.107 -4.5 18.048 -6.125 18 C-7.03 17.965 -7.935 17.93 -8.867 17.895 C-9.654 17.991 -10.44 18.088 -11.25 18.188 Z "  transform="translate(825.25,318.8125)"/>
<path fill="#B82333" d="M0 0 C3.192 2.953 4.382 5.466 4.66 9.82 C4.628 10.684 4.596 11.548 4.562 12.438 C4.442 17.393 4.869 22.097 5.574 27 C5.5 29.312 5.5 29.312 4.301 31.117 C2.015 32.634 0.717 32.591 -2 32.438 C-5.006 32.287 -6.577 32.338 -9.5 33.312 C-15.227 33.853 -18.003 32.868 -22.5 29.312 C-24.5 27.312 -24.5 27.312 -24.875 23.5 C-24.799 19.342 -23.466 17.279 -20.5 14.312 C-20.851 13.797 -21.201 13.281 -21.562 12.75 C-22.923 9.213 -22.472 6.942 -21.5 3.312 C-15.578 -2.609 -7.471 -3.602 0 0 Z M-15.5 8.312 C-15.83 9.303 -16.16 10.293 -16.5 11.312 C-15.5 12.312 -15.5 12.312 -13.215 12.41 C-12.298 12.399 -11.382 12.387 -10.438 12.375 C-9.518 12.366 -8.599 12.357 -7.652 12.348 C-6.942 12.336 -6.232 12.324 -5.5 12.312 C-4.875 10.438 -4.875 10.438 -4.5 8.312 C-6.5 6.312 -6.5 6.312 -8.875 6.062 C-11.627 6.325 -13.22 6.765 -15.5 8.312 Z M-14.5 20.312 C-14.83 21.303 -15.16 22.293 -15.5 23.312 C-15.17 23.808 -15.17 23.808 -13.5 26.312 C-10.125 26 -10.125 26 -6.5 25.312 C-4.5 22.312 -4.5 22.312 -4.875 20.125 C-5.081 19.527 -5.287 18.929 -5.5 18.312 C-9.078 18.114 -11.492 18.271 -14.5 20.312 Z "  transform="translate(1176.5,318.6875)"/>
<path fill="#B82333" d="M0 0 C3.255 2.725 4.501 4.536 4.962 8.768 C4.99 11.783 5.009 14.797 5 17.812 C5.016 18.866 5.032 19.92 5.049 21.006 C5.049 22.016 5.05 23.026 5.051 24.066 C5.054 24.989 5.057 25.911 5.06 26.862 C4.625 29.65 3.86 30.521 1.688 32.25 C-2.188 30.5 -2.188 30.5 -3.312 28.25 C-3.338 24.892 -3.285 21.548 -3.186 18.191 C-3.126 14.365 -3.149 11.491 -5.312 8.25 C-7.688 8.125 -7.688 8.125 -10.312 8.25 C-12.659 10.596 -12.567 11.065 -12.621 14.242 C-12.646 15.03 -12.671 15.817 -12.697 16.629 C-12.732 18.285 -12.764 19.941 -12.791 21.598 C-13.04 29.056 -13.04 29.056 -16.312 32.25 C-19.18 31.677 -20.174 31.389 -22.312 29.25 C-22.771 25.144 -22.636 21.004 -22.625 16.875 C-22.641 15.725 -22.657 14.575 -22.674 13.391 C-22.674 12.285 -22.675 11.179 -22.676 10.039 C-22.677 9.532 -22.677 9.532 -22.685 6.967 C-22.259 3.859 -21.453 2.507 -19.312 0.25 C-13.232 -2.248 -5.848 -3.089 0 0 Z "  transform="translate(1240.3125,318.75)"/>
<path fill="#B82333" d="M0 0 C2.5 1.688 2.5 1.688 4.5 4.688 C4.819 7.507 4.819 7.507 4.914 10.887 C4.953 12.095 4.991 13.304 5.031 14.549 C5.062 15.811 5.093 17.074 5.125 18.375 C5.164 19.649 5.202 20.923 5.242 22.236 C5.337 25.387 5.422 28.537 5.5 31.688 C-14.329 35.039 -14.329 35.039 -20.375 31.688 C-23.105 29.546 -23.517 28.637 -24.688 25.188 C-24.482 21.343 -23.678 19.787 -21.5 16.688 C-20.688 14.562 -20.688 14.562 -20.5 12.688 C-21.16 11.697 -21.82 10.707 -22.5 9.688 C-22.625 6.812 -22.625 6.812 -21.5 3.688 C-15.423 -2.374 -7.765 -2.912 0 0 Z M-15.5 9.688 C-15.5 10.678 -15.5 11.668 -15.5 12.688 C-12.2 12.688 -8.9 12.688 -5.5 12.688 C-5.17 11.368 -4.84 10.048 -4.5 8.688 C-9.08 5.634 -11.251 6.587 -15.5 9.688 Z M-14.5 21.688 C-14.17 23.337 -13.84 24.988 -13.5 26.688 C-9.859 27.019 -8.085 27.108 -5.062 24.938 C-3.5 22.688 -3.5 22.688 -3.75 20.438 C-3.997 19.86 -4.245 19.283 -4.5 18.688 C-8.948 18.384 -11.182 18.624 -14.5 21.688 Z "  transform="translate(1304.5,318.3125)"/>
<path fill="#B82333" d="M0 0 C2.199 1 2.199 1 3.199 2 C3.337 4.523 3.412 7.018 3.438 9.543 C3.446 10.304 3.454 11.065 3.462 11.85 C3.476 13.466 3.487 15.083 3.494 16.699 C3.512 19.16 3.555 21.62 3.6 24.08 C3.61 25.651 3.618 27.222 3.625 28.793 C3.643 29.524 3.66 30.256 3.678 31.01 C3.656 36.154 2.428 39.033 -0.801 43 C-5.193 46.102 -10.658 45.625 -15.801 45 C-19.07 43.633 -21.303 41.498 -23.801 39 C-24.176 36.125 -24.176 36.125 -23.801 33 C-21.801 30.625 -21.801 30.625 -19.801 29 C-20.605 28.237 -21.41 27.474 -22.238 26.688 C-25.869 22.312 -26.044 17.517 -25.801 12 C-25.062 7.051 -23.056 3.792 -19.363 0.438 C-13.434 -3.614 -6.455 -2.305 0 0 Z M-14.551 8.562 C-16.213 11.803 -16.673 14.361 -16.801 18 C-15.5 21.324 -14.694 22.601 -11.426 24.062 C-8.801 24 -8.801 24 -5.988 22.625 C-3.231 19.317 -3.13 17.333 -3.379 13.129 C-3.801 11 -3.801 11 -5.488 8.438 C-8.927 6.3 -11.394 5.744 -14.551 8.562 Z M-14.801 33 C-14.141 34.32 -13.481 35.64 -12.801 37 C-10.821 36.67 -8.841 36.34 -6.801 36 C-6.471 34.68 -6.141 33.36 -5.801 32 C-9.58 30.95 -11.45 30.89 -14.801 33 Z "  transform="translate(1369.80078125,319)"/>
<path fill="#B82333" d="M0 0 C3.013 2.032 4.136 3.555 5.688 6.812 C6.079 7.617 6.471 8.421 6.875 9.25 C7.831 12.266 7.967 14.666 7.688 17.812 C7.027 18.473 6.368 19.132 5.688 19.812 C5.668 21.836 5.668 21.836 5.875 24.188 C5.979 28.489 5.979 28.489 3.438 31.312 C0.973 32.657 -0.564 33.489 -3.312 33.812 C-4.344 33.936 -5.375 34.06 -6.438 34.188 C-12.761 33.576 -18.335 31.198 -22.438 26.25 C-24.025 20.015 -24.374 13.077 -22.375 6.875 C-17.093 -0.968 -8.726 -3.128 0 0 Z M-8.312 6.812 C-8.973 7.473 -9.632 8.132 -10.312 8.812 C-10.312 9.803 -10.312 10.793 -10.312 11.812 C-7.302 12.747 -6.446 12.857 -3.312 11.812 C-4.125 9.875 -4.125 9.875 -5.312 7.812 C-6.303 7.483 -7.293 7.152 -8.312 6.812 Z M-11.312 18.812 C-12 21.125 -12 21.125 -12.312 23.812 C-11.25 25.688 -11.25 25.688 -9.312 26.812 C-6.111 26.679 -4.041 26.306 -1.375 24.5 C-1.024 23.943 -0.674 23.386 -0.312 22.812 C-0.642 21.493 -0.973 20.173 -1.312 18.812 C-4.612 18.812 -7.912 18.812 -11.312 18.812 Z "  transform="translate(1432.3125,318.1875)"/>
<path fill="#B82333" d="M0 0 C0.33 0.175 0.33 0.175 2 1.062 C4.9 2.422 6.953 1.729 10 1 C10.66 0.67 11.32 0.34 12 0 C16.195 -0.403 18.525 -0.242 22.312 1.688 C25.766 4.659 26.817 7.127 27.259 11.647 C27.261 12.572 27.263 13.497 27.266 14.449 C27.267 14.955 27.267 14.955 27.273 17.518 C27.266 18.564 27.258 19.61 27.25 20.688 C27.254 21.216 27.254 21.216 27.273 23.893 C27.271 24.901 27.268 25.91 27.266 26.949 C27.263 27.87 27.261 28.792 27.259 29.741 C27 32 27 32 25 34 C22.205 34.358 20.662 34.499 18.372 32.772 C16.626 30.517 16.578 29.164 16.488 26.332 C16.453 25.439 16.417 24.547 16.381 23.627 C16.37 23.163 16.37 23.163 16.312 20.812 C16.278 19.872 16.244 18.932 16.209 17.963 C16.127 15.642 16.057 13.322 16 11 C14.68 10.67 13.36 10.34 12 10 C9.985 13.023 9.745 13.717 9.656 17.125 C9.641 17.519 9.641 17.519 9.566 19.516 C9.544 20.335 9.523 21.155 9.5 22 C9.457 23.625 9.405 25.25 9.344 26.875 C9.325 27.594 9.306 28.314 9.287 29.055 C9 31 9 31 7 34 C4.5 34.375 4.5 34.375 2 34 C-0.123 30.816 -0.28 29.795 -0.414 26.113 C-0.453 25.175 -0.491 24.238 -0.531 23.271 C-0.562 22.295 -0.593 21.319 -0.625 20.312 C-0.664 19.324 -0.702 18.336 -0.742 17.318 C-0.836 14.879 -0.922 12.44 -1 10 C-2.65 10 -4.3 10 -6 10 C-8.925 14.582 -8.054 19.356 -7.875 24.59 C-8.004 28.115 -8.4 31.4 -11 34 C-13 34.041 -15 34.043 -17 34 C-18.94 30.733 -19.257 28.276 -19.266 24.5 C-19.268 23.448 -19.271 22.396 -19.273 21.312 C-19.266 20.219 -19.258 19.126 -19.25 18 C-19.254 17.453 -19.254 17.453 -19.273 14.688 C-19.271 13.636 -19.268 12.584 -19.266 11.5 C-19.263 10.541 -19.261 9.582 -19.259 8.594 C-18.99 5.898 -18.485 4.255 -17 2 C-14.906 1.426 -14.906 1.426 -12.5 1.312 C-8.053 1.06 -4.544 -0.273 0 0 Z "  transform="translate(1493,317)"/>
<path fill="#B82333" d="M0 0 C4.228 1.739 6.424 3.61 8.465 7.734 C10.466 13.062 9.673 17.111 7.902 22.422 C7.985 23.556 8.067 24.691 8.152 25.859 C7.902 29.422 7.902 29.422 5.715 31.797 C2.877 33.436 1.138 34.114 -2.098 34.422 C-3.17 34.546 -4.243 34.669 -5.348 34.797 C-11.014 34.23 -16.052 31.806 -19.801 27.438 C-22.956 22.534 -22.648 17.045 -22.098 11.422 C-20.775 7.063 -18.373 4.335 -14.473 2.047 C-13.359 1.511 -12.245 0.974 -11.098 0.422 C-7.486 -1.384 -3.842 -1.059 0 0 Z M-8.098 8.422 C-8.428 9.412 -8.758 10.402 -9.098 11.422 C-8.098 12.422 -8.098 12.422 -5.035 12.484 C-4.066 12.464 -3.096 12.443 -2.098 12.422 C-2.428 11.102 -2.758 9.782 -3.098 8.422 C-4.748 8.422 -6.398 8.422 -8.098 8.422 Z M-9.098 19.422 C-9.785 21.734 -9.785 21.734 -10.098 24.422 C-8.973 26.297 -8.973 26.297 -7.098 27.422 C-4.201 27.277 -2.599 26.802 -0.285 25.047 C0.902 23.422 0.902 23.422 0.902 20.422 C-1.385 19.278 -2.69 19.319 -5.223 19.359 C-5.862 19.37 -5.862 19.37 -9.098 19.422 Z "  transform="translate(1575.09765625,317.578125)"/>
<path fill="#B82333" d="M0 0 C2.5 2.062 2.5 2.062 3.5 4.062 C3.795 8.036 3.778 12.017 3.812 16 C3.842 17.111 3.871 18.221 3.9 19.365 C3.909 20.429 3.917 21.493 3.926 22.59 C3.94 23.567 3.955 24.544 3.97 25.551 C3.5 28.062 3.5 28.062 1.641 29.948 C-0.5 31.062 -0.5 31.062 -3.188 30.375 C-5.5 29.062 -5.5 29.062 -6.5 27.062 C-6.526 23.704 -6.472 20.36 -6.373 17.004 C-6.313 13.178 -6.337 10.303 -8.5 7.062 C-9.82 7.062 -11.14 7.062 -12.5 7.062 C-14.445 10.953 -13.834 16.082 -13.93 20.41 C-14.068 23.946 -14.169 26.441 -15.852 29.598 C-17.5 31.062 -17.5 31.062 -20.5 31.625 C-23.5 31.062 -23.5 31.062 -25.168 29.184 C-27.107 24.64 -26.897 20.448 -26.812 15.562 C-26.816 14.625 -26.819 13.688 -26.822 12.723 C-26.741 2.303 -26.741 2.303 -23.5 -0.938 C-15.681 -2.976 -7.18 -4.554 0 0 Z "  transform="translate(1644.5,319.9375)"/>
<path fill="#B82333" d="M0 0 C5.242 3.37 5.242 3.37 6.172 6.57 C6.93 14.94 6.472 23.337 5.625 31.688 C4.625 32.688 4.625 32.688 2.445 32.75 C0.654 32.708 -1.138 32.667 -2.93 32.625 C-5.375 32.688 -5.375 32.688 -8.375 33.688 C-13.618 34.083 -16.919 33.523 -21.375 30.688 C-24.076 28.166 -24.35 26.917 -24.75 23.188 C-24.375 19.688 -24.375 19.688 -22.812 17.777 C-21.375 15.688 -21.375 15.688 -21.477 13.285 C-21.649 12.449 -21.822 11.612 -22 10.75 C-22.636 6.056 -22.636 6.056 -20.25 2.688 C-13.814 -1.79 -7.409 -2.881 0 0 Z M-12.625 7.938 C-13.203 8.515 -13.78 9.092 -14.375 9.688 C-14.375 10.678 -14.375 11.668 -14.375 12.688 C-13.096 12.708 -11.818 12.729 -10.5 12.75 C-9.781 12.762 -9.061 12.773 -8.32 12.785 C-6.375 12.688 -6.375 12.688 -4.375 11.688 C-5.332 9.216 -5.835 7.958 -8.25 6.75 C-10.375 6.688 -10.375 6.688 -12.625 7.938 Z M-13.375 22.688 C-12.715 24.007 -12.055 25.327 -11.375 26.688 C-9 26.375 -9 26.375 -6.375 25.688 C-4.375 22.688 -4.375 22.688 -4.375 18.688 C-8.931 18.181 -10.457 19.229 -13.375 22.688 Z "  transform="translate(1985.375,318.3125)"/>
<path fill="#B82333" d="M0 0 C2.909 1.148 4.418 0.817 7.375 -0.062 C8.035 -0.392 8.695 -0.723 9.375 -1.062 C12.339 -1.467 14.464 -1.626 17.066 -0.016 C19.26 1.781 21.096 3.379 22.375 5.938 C22.618 10.099 22.56 14.269 22.562 18.438 C22.575 19.604 22.587 20.771 22.6 21.973 C22.602 23.085 22.603 24.198 22.605 25.344 C22.61 26.368 22.614 27.392 22.618 28.447 C22.375 30.938 22.375 30.938 20.375 32.938 C18.375 32.75 18.375 32.75 16.375 31.938 C13.46 27.565 14.284 23.166 14.453 18.098 C14.575 12.238 14.575 12.238 12.375 8.938 C7.5 9.812 7.5 9.812 6.375 10.938 C6.255 12.317 6.196 13.702 6.164 15.086 C6.15 15.506 6.15 15.506 6.078 17.633 C6.026 19.411 5.982 21.19 5.945 22.969 C5.93 23.39 5.93 23.39 5.852 25.523 C5.832 26.297 5.812 27.071 5.792 27.869 C5.273 30.446 4.47 31.383 2.375 32.938 C-0.25 32.75 -0.25 32.75 -2.625 31.938 C-3.856 29.476 -3.831 27.68 -3.941 24.93 C-3.983 23.944 -4.025 22.957 -4.068 21.941 C-4.108 20.909 -4.147 19.876 -4.188 18.812 C-4.231 17.772 -4.274 16.732 -4.318 15.66 C-4.425 13.086 -4.527 10.512 -4.625 7.938 C-10.5 9.812 -10.5 9.812 -11.625 10.938 C-11.795 14.705 -11.922 18.466 -11.967 22.236 C-12.181 28.378 -12.181 28.378 -14.668 31.512 C-15.314 31.982 -15.96 32.453 -16.625 32.938 C-20.5 31.188 -20.5 31.188 -21.625 28.938 C-21.867 25.151 -21.81 21.356 -21.812 17.562 C-21.825 16.508 -21.837 15.454 -21.85 14.367 C-21.852 13.351 -21.853 12.336 -21.855 11.289 C-21.86 10.359 -21.864 9.429 -21.868 8.471 C-21.611 5.794 -21.079 4.187 -19.625 1.938 C-13.685 -0.973 -6.253 -2.531 0 0 Z "  transform="translate(2334.625,318.0625)"/>
<path fill="#B82333" d="M0 0 C0.812 2.625 0.812 2.625 1 5 C0.237 5.598 -0.526 6.196 -1.312 6.812 C-6.529 11.059 -6.529 11.059 -8 14 C-8.232 17.412 -8.395 20.817 -8.518 24.234 C-8.786 29.786 -8.786 29.786 -11 32 C-13.625 32.125 -13.625 32.125 -16 32 C-17.69 29.044 -18.256 26.911 -18.266 23.516 C-18.268 22.662 -18.271 21.809 -18.273 20.93 C-18.266 20.045 -18.258 19.161 -18.25 18.25 C-18.258 17.381 -18.265 16.512 -18.273 15.617 C-18.257 10.079 -17.558 5.316 -16 0 C-14.275 -0.393 -12.545 -0.763 -10.812 -1.125 C-9.85 -1.334 -8.887 -1.543 -7.895 -1.758 C-4.61 -2.033 -2.865 -1.596 0 0 Z "  transform="translate(769,319)"/>
<path fill="#B82333" d="M0 0 C3.161 1.37 3.993 1.989 6 5 C6.464 8.964 6.37 12.949 6.375 16.938 C6.399 18.035 6.424 19.133 6.449 20.264 C6.453 21.32 6.457 22.376 6.461 23.465 C6.469 24.43 6.477 25.396 6.486 26.39 C5.871 29.691 4.528 30.879 2 33 C-2.875 31.125 -2.875 31.125 -4 30 C-4.31 25.737 -4.278 21.461 -4.312 17.188 C-4.342 15.985 -4.371 14.783 -4.4 13.545 C-4.405 12.967 -4.405 12.967 -4.426 10.043 C-4.44 8.981 -4.455 7.919 -4.47 6.825 C-3.893 3.355 -2.672 2.197 0 0 Z "  transform="translate(936,318)"/>
<path fill="#B82333" d="M0 0 C1.938 0.812 1.938 0.812 4 2 C5.673 7.019 5.227 12.246 5.25 17.5 C5.271 18.654 5.291 19.807 5.312 20.996 C5.318 22.101 5.323 23.206 5.328 24.344 C5.333 24.85 5.333 24.85 5.356 27.412 C4.952 30.348 4.303 31.215 2 33 C-1.875 31.125 -1.875 31.125 -3 30 C-3.282 25.736 -3.232 21.46 -3.25 17.188 C-3.271 15.985 -3.291 14.783 -3.312 13.545 C-3.315 12.967 -3.315 12.967 -3.328 10.043 C-3.337 8.981 -3.347 7.919 -3.356 6.825 C-2.959 3.672 -2.115 2.319 0 0 Z "  transform="translate(2220,318)"/>
<path fill="#B82333" d="M0 0 C0.688 2.312 0.688 2.312 1 5 C-0.647 7.519 -2.368 8.169 -5.125 9.438 C-8 11 -8 11 -8.688 12.66 C-9.265 16.984 -8.899 21.339 -8.742 25.688 C-9.017 29.223 -9.454 30.579 -12 33 C-14.688 33.25 -14.688 33.25 -17 33 C-19.884 28.085 -19.33 23.113 -19.312 17.562 C-19.329 16.525 -19.345 15.488 -19.361 14.42 C-19.368 4.594 -19.368 4.594 -16 1 C-10.85 -1.455 -5.442 -1.158 0 0 Z "  transform="translate(2280,318)"/>
<path fill="#B82333" d="M0 0 C2.625 0.25 2.625 0.25 4.184 1.441 C5.971 3.684 6.56 5.678 7.312 8.438 C7.438 8.888 7.438 8.888 8.074 11.168 C8.256 11.855 8.438 12.542 8.625 13.25 C9.285 13.25 9.945 13.25 10.625 13.25 C10.746 12.479 10.867 11.708 10.992 10.914 C11.16 9.911 11.327 8.908 11.5 7.875 C11.662 6.877 11.825 5.88 11.992 4.852 C12.625 2.25 12.625 2.25 14.625 0.25 C17.562 -0.125 17.562 -0.125 20.625 0.25 C23.596 3.008 24.496 6.427 25.625 10.25 C26.285 10.25 26.945 10.25 27.625 10.25 C27.902 9.612 28.179 8.974 28.465 8.316 C28.827 7.49 29.189 6.664 29.562 5.812 C29.922 4.989 30.282 4.165 30.652 3.316 C31.625 1.25 31.625 1.25 32.625 0.25 C35.062 0.062 35.062 0.062 37.625 0.25 C38.285 0.91 38.945 1.57 39.625 2.25 C38.787 11.107 35.045 25.83 28.625 32.25 C26.188 32.688 26.188 32.688 23.625 32.25 C20.009 28.246 19.951 23.404 19.625 18.25 C18.635 18.25 17.645 18.25 16.625 18.25 C16.432 19.009 16.238 19.769 16.039 20.551 C15.779 21.545 15.518 22.539 15.25 23.562 C15.122 24.056 15.122 24.056 14.477 26.551 C13.625 29.25 13.625 29.25 11.625 32.25 C9.312 32.812 9.312 32.812 6.625 32.25 C2.251 27.842 0.422 23.807 -1.188 17.875 C-1.403 17.158 -1.619 16.442 -1.842 15.703 C-3.249 10.753 -3.666 6.394 -3.375 1.25 C-2.375 0.25 -2.375 0.25 0 0 Z "  transform="translate(2028.375,318.75)"/>
<path fill="#B82333" d="M0 0 C56.492 -0.034 112.985 -0.066 169.477 -0.085 C169.895 -0.085 169.895 -0.085 172.009 -0.086 C190.167 -0.092 208.324 -0.097 226.481 -0.102 C235.385 -0.105 244.288 -0.107 253.192 -0.11 C254.078 -0.11 254.964 -0.11 255.877 -0.111 C284.618 -0.119 313.358 -0.134 342.099 -0.153 C371.624 -0.171 401.148 -0.184 430.673 -0.188 C434.839 -0.188 439.005 -0.189 443.171 -0.19 C443.991 -0.19 444.811 -0.19 445.656 -0.19 C458.878 -0.193 472.1 -0.202 485.321 -0.214 C498.6 -0.225 511.879 -0.23 525.158 -0.227 C533.056 -0.225 540.954 -0.23 548.852 -0.242 C554.736 -0.25 560.621 -0.248 566.505 -0.242 C568.895 -0.241 571.286 -0.244 573.676 -0.25 C576.907 -0.258 580.138 -0.254 583.37 -0.246 C584.313 -0.251 585.257 -0.257 586.229 -0.262 C586.657 -0.26 586.657 -0.26 588.825 -0.248 C589.565 -0.249 590.304 -0.249 591.066 -0.249 C593 0 593 0 596 2 C597.768 7.303 597.27 12.95 597.312 18.5 C597.342 19.749 597.371 20.998 597.4 22.285 C597.409 23.48 597.417 24.675 597.426 25.906 C597.433 26.454 597.433 26.454 597.47 29.229 C597 32 597 32 595.58 33.65 C591.571 35.747 587.706 35.406 583.247 35.369 C582.744 35.371 582.744 35.371 580.199 35.38 C576.801 35.388 573.404 35.374 570.006 35.361 C567.557 35.362 565.107 35.365 562.658 35.369 C557.318 35.374 551.979 35.37 546.64 35.358 C538.7 35.34 530.76 35.339 522.821 35.341 C509.466 35.345 496.111 35.335 482.756 35.317 C469.529 35.299 456.303 35.288 443.077 35.285 C442.255 35.284 441.433 35.284 440.586 35.284 C436.413 35.283 432.239 35.282 428.066 35.281 C398.491 35.275 368.916 35.255 339.341 35.226 C310.607 35.199 281.872 35.178 253.137 35.165 C252.252 35.164 251.366 35.164 250.454 35.164 C241.562 35.16 232.67 35.156 223.778 35.152 C205.664 35.144 187.549 35.136 169.435 35.127 C168.602 35.127 167.769 35.126 166.911 35.126 C111.274 35.098 55.637 35.05 0 35 C0 23.45 0 11.9 0 0 Z "  transform="translate(0,427)"/>
<path fill="#B82333" d="M0 0 C56.588 -0.051 113.176 -0.099 169.763 -0.127 C170.6 -0.127 171.437 -0.128 172.3 -0.128 C190.487 -0.137 208.675 -0.146 226.863 -0.153 C235.782 -0.157 244.701 -0.161 253.619 -0.165 C254.507 -0.165 255.394 -0.166 256.309 -0.166 C285.098 -0.179 313.887 -0.201 342.676 -0.229 C372.251 -0.257 401.825 -0.276 431.399 -0.282 C435.573 -0.283 439.746 -0.284 443.919 -0.285 C444.741 -0.285 445.562 -0.285 446.408 -0.285 C459.652 -0.289 472.896 -0.303 486.14 -0.32 C499.442 -0.338 512.743 -0.345 526.044 -0.341 C533.956 -0.338 541.867 -0.344 549.778 -0.362 C555.672 -0.375 561.567 -0.372 567.461 -0.363 C569.855 -0.361 572.25 -0.365 574.644 -0.375 C577.881 -0.387 581.117 -0.38 584.354 -0.369 C585.299 -0.377 586.244 -0.385 587.218 -0.393 C588.076 -0.386 588.934 -0.38 589.819 -0.373 C590.559 -0.373 591.3 -0.374 592.063 -0.374 C594.557 0.108 595.45 1.026 597 3 C597.388 5.097 597.388 5.097 597.398 7.492 C597.402 8.362 597.406 9.232 597.41 10.129 C597.404 10.582 597.404 10.582 597.375 12.875 C597.387 13.773 597.398 14.672 597.41 15.598 C597.386 21.03 597.035 24.965 593 29 C589.865 29.099 586.752 29.132 583.616 29.123 C583.115 29.124 583.115 29.124 580.578 29.127 C577.175 29.129 573.771 29.125 570.367 29.12 C567.92 29.121 565.473 29.122 563.027 29.123 C557.683 29.125 552.34 29.123 546.997 29.119 C539.052 29.113 531.107 29.113 523.162 29.114 C509.799 29.115 496.436 29.112 483.073 29.106 C469.836 29.1 456.598 29.096 443.361 29.095 C442.539 29.095 441.717 29.095 440.87 29.095 C436.696 29.094 432.521 29.094 428.347 29.094 C398.754 29.092 369.161 29.085 339.568 29.075 C310.812 29.066 282.057 29.059 253.302 29.055 C252.416 29.055 251.53 29.055 250.618 29.055 C241.722 29.053 232.826 29.052 223.93 29.051 C205.808 29.048 187.685 29.045 169.562 29.042 C168.729 29.042 167.895 29.042 167.037 29.042 C111.358 29.033 55.679 29.017 0 29 C0 19.43 0 9.86 0 0 Z "  transform="translate(0,475)"/>
<path fill="#B82333" d="M0 0 C56.369 -0.085 112.738 -0.165 169.107 -0.212 C169.941 -0.212 170.774 -0.213 171.634 -0.214 C189.755 -0.229 207.876 -0.243 225.997 -0.255 C234.883 -0.262 243.769 -0.268 252.655 -0.275 C253.539 -0.275 254.424 -0.276 255.335 -0.277 C284.013 -0.298 312.691 -0.336 341.369 -0.381 C370.832 -0.429 400.295 -0.459 429.758 -0.47 C433.917 -0.471 438.075 -0.473 442.234 -0.474 C443.052 -0.475 443.871 -0.475 444.714 -0.475 C457.906 -0.481 471.097 -0.505 484.289 -0.534 C497.541 -0.564 510.793 -0.575 524.045 -0.568 C531.925 -0.564 539.804 -0.574 547.684 -0.604 C553.558 -0.625 559.433 -0.62 565.307 -0.604 C567.691 -0.602 570.075 -0.609 572.458 -0.624 C575.686 -0.644 578.912 -0.634 582.139 -0.615 C583.076 -0.628 584.013 -0.642 584.978 -0.655 C589.472 -0.596 591.398 -0.458 595.075 2.339 C597.454 5.627 597.672 7.531 597.625 11.562 C597.638 12.678 597.651 13.793 597.664 14.941 C597 18 597 18 595.075 20.16 C590.727 22.761 587.118 22.548 582.139 22.492 C581.134 22.497 580.129 22.501 579.093 22.506 C575.703 22.517 572.314 22.499 568.924 22.481 C566.478 22.483 564.032 22.486 561.586 22.491 C556.256 22.498 550.927 22.493 545.598 22.477 C537.673 22.453 529.749 22.451 521.824 22.455 C508.495 22.46 495.165 22.447 481.835 22.423 C468.635 22.399 455.434 22.384 442.234 22.38 C441.413 22.379 440.593 22.379 439.748 22.379 C435.582 22.377 431.416 22.376 427.249 22.375 C397.731 22.367 368.212 22.34 338.693 22.302 C310.014 22.265 281.334 22.237 252.655 22.22 C251.771 22.219 250.887 22.219 249.977 22.218 C241.101 22.213 232.226 22.208 223.35 22.203 C205.269 22.193 187.188 22.181 169.107 22.169 C168.275 22.169 167.444 22.168 166.587 22.168 C111.058 22.131 55.529 22.067 0 22 C0 14.74 0 7.48 0 0 Z "  transform="translate(0,521)"/>
<path fill="#B82333" d="M0 0 C56.383 -0.034 112.766 -0.066 169.149 -0.085 C169.983 -0.085 170.817 -0.085 171.676 -0.086 C189.8 -0.092 207.924 -0.097 226.048 -0.102 C234.935 -0.105 243.823 -0.107 252.71 -0.11 C253.152 -0.11 253.152 -0.11 255.39 -0.111 C284.075 -0.119 312.76 -0.134 341.445 -0.153 C370.914 -0.171 400.383 -0.184 429.852 -0.188 C434.011 -0.188 438.17 -0.189 442.329 -0.19 C443.147 -0.19 443.966 -0.19 444.809 -0.19 C458.005 -0.193 471.2 -0.202 484.395 -0.214 C497.65 -0.225 510.904 -0.23 524.159 -0.227 C532.041 -0.225 539.923 -0.23 547.805 -0.242 C553.679 -0.25 559.554 -0.248 565.428 -0.242 C567.813 -0.241 570.198 -0.244 572.583 -0.25 C575.81 -0.258 579.036 -0.254 582.262 -0.246 C582.732 -0.249 582.732 -0.249 585.109 -0.262 C585.966 -0.258 586.824 -0.253 587.707 -0.248 C588.076 -0.249 588.076 -0.249 589.944 -0.249 C592.35 0.042 593.944 0.729 596 2 C597.532 5.064 597.229 7.617 597 11 C596.087 13.692 596.087 13.692 594 16 C590.801 16.775 587.631 16.661 584.354 16.615 C583.348 16.621 582.341 16.627 581.305 16.633 C577.899 16.646 574.494 16.623 571.089 16.601 C568.636 16.603 566.183 16.608 563.731 16.614 C558.381 16.623 553.031 16.616 547.681 16.596 C539.726 16.566 531.772 16.564 523.817 16.569 C510.437 16.575 497.057 16.559 483.676 16.529 C470.424 16.499 457.172 16.48 443.919 16.474 C443.096 16.474 442.273 16.474 441.424 16.473 C437.244 16.472 433.063 16.47 428.882 16.469 C399.251 16.458 369.62 16.424 339.99 16.377 C311.199 16.331 282.409 16.296 253.619 16.275 C252.732 16.274 251.845 16.273 250.931 16.273 C242.023 16.266 233.115 16.26 224.207 16.253 C206.059 16.241 187.911 16.227 169.763 16.212 C168.929 16.211 168.094 16.21 167.235 16.21 C111.49 16.164 55.745 16.084 0 16 C0 10.72 0 5.44 0 0 Z "  transform="translate(0,568)"/>
<path fill="#B82333" d="M0 0 C56.492 -0.051 112.985 -0.099 169.477 -0.127 C170.313 -0.127 171.148 -0.128 172.009 -0.128 C190.167 -0.137 208.324 -0.146 226.481 -0.153 C235.385 -0.157 244.288 -0.161 253.192 -0.165 C254.078 -0.165 254.964 -0.166 255.877 -0.166 C284.618 -0.179 313.358 -0.201 342.099 -0.229 C371.624 -0.257 401.148 -0.276 430.673 -0.282 C434.839 -0.283 439.005 -0.284 443.171 -0.285 C443.991 -0.285 444.811 -0.285 445.656 -0.285 C458.878 -0.289 472.1 -0.303 485.321 -0.32 C498.6 -0.338 511.879 -0.345 525.158 -0.341 C533.056 -0.338 540.954 -0.344 548.852 -0.362 C554.736 -0.375 560.621 -0.372 566.505 -0.363 C568.895 -0.361 571.286 -0.365 573.676 -0.375 C576.908 -0.387 580.138 -0.38 583.37 -0.369 C584.313 -0.377 585.257 -0.385 586.229 -0.393 C587.086 -0.386 587.942 -0.38 588.825 -0.373 C589.565 -0.373 590.304 -0.374 591.066 -0.374 C593.58 0.112 594.439 1.004 596 3 C597.656 7.967 597.226 13.112 597.25 18.312 C597.26 18.877 597.26 18.877 597.312 21.732 C597.318 22.827 597.323 23.923 597.328 25.051 C597.337 26.048 597.347 27.044 597.356 28.072 C597 31 597 31 594 37 C397.98 37 201.96 37 0 37 C0 24.79 0 12.58 0 0 Z "  transform="translate(0,615)"/>
<rect x="714" y="86" width="22" height="162" fill="#000000"/>
<path fill="#000000" d="M0 0 C0.103 2.077 0.134 4.157 0.138 6.237 C0.141 6.896 0.144 7.554 0.147 8.233 C0.155 10.457 0.156 12.681 0.158 14.905 C0.162 16.493 0.168 18.081 0.173 19.669 C0.184 23.098 0.193 26.526 0.199 29.955 C0.21 35.375 0.23 40.795 0.252 46.215 C0.314 61.632 0.368 77.048 0.401 92.464 C0.42 100.972 0.449 109.479 0.489 117.987 C0.51 122.491 0.526 126.996 0.528 131.5 C0.53 135.739 0.546 139.977 0.573 144.216 C0.58 145.771 0.582 147.327 0.578 148.883 C0.575 151.007 0.589 153.131 0.608 155.255 C0.61 155.85 0.61 155.85 0.618 158.858 C1.042 162.342 1.908 164.207 4 167 C8.905 170.23 14.303 171.043 20 172 C20.688 174.813 20.688 174.813 21 178 C19.756 179.667 19.756 179.667 18 181 C15.103 181.392 12.408 181.608 9.5 181.688 C8.667 181.718 7.834 181.749 6.976 181.78 C5.217 181.839 3.458 181.89 1.699 181.933 C-0.097 181.977 -1.892 182.033 -3.687 182.099 C-6.27 182.193 -8.853 182.257 -11.438 182.312 C-12.235 182.342 -13.033 182.372 -13.855 182.403 C-17.45 182.439 -19.541 182.34 -22.473 180.168 C-24 178 -24 178 -25 175 C-27.312 175.25 -27.312 175.25 -30 176 C-30.401 176.619 -30.802 177.238 -31.215 177.875 C-33.708 180.843 -36.651 181.668 -40.25 182.75 C-40.958 182.965 -41.666 183.179 -42.396 183.4 C-54.442 186.772 -67.654 186.24 -78.906 180.523 C-93.477 171.757 -101.528 158.859 -106.562 142.812 C-108.049 136.443 -108.371 130.218 -108.438 123.688 C-108.448 122.78 -108.458 121.873 -108.469 120.939 C-108.384 114.528 -107.129 109.029 -105 103 C-104.71 102.161 -104.42 101.323 -104.122 100.459 C-100.093 89.15 -93.261 76.582 -82.25 70.875 C-80.839 70.237 -79.422 69.614 -78 69 C-76.062 68.104 -74.125 67.208 -72.188 66.312 C-64.796 62.945 -58.824 62.751 -50.75 62.688 C-49.534 62.658 -48.319 62.629 -47.066 62.6 C-39.92 62.549 -35.933 63.103 -30 67 C-26.812 67.124 -26.812 67.124 -24 67 C-23.901 61.023 -23.828 55.046 -23.78 49.068 C-23.76 47.037 -23.733 45.006 -23.698 42.975 C-23.649 40.046 -23.627 37.117 -23.609 34.188 C-23.589 33.288 -23.568 32.389 -23.547 31.462 C-23.544 24.723 -24.99 19.548 -29.403 14.347 C-32.132 12.045 -35.647 11.671 -39.062 10.938 C-46.745 9.255 -46.745 9.255 -49 7 C-48.444 2.444 -48.444 2.444 -47 1 C-44.184 0.789 -41.383 0.624 -38.562 0.5 C-30.269 0.134 -30.269 0.134 -28 -1 C-24.595 -1.366 -21.17 -1.468 -17.75 -1.625 C-16.808 -1.677 -15.865 -1.728 -14.895 -1.781 C-2.378 -2.378 -2.378 -2.378 0 0 Z M-67.625 79 C-67.909 79.291 -67.909 79.291 -69.345 80.765 C-76.096 87.916 -79.467 95.338 -81 105 C-81.184 106.074 -81.369 107.148 -81.559 108.254 C-84.142 124.485 -84.45 143.864 -74.629 157.992 C-68.239 165.868 -62.386 170.722 -52.062 171.875 C-43.298 172.316 -35.828 170.771 -29 165 C-28.51 164.618 -28.02 164.235 -27.516 163.842 C-23.352 159.958 -22.541 156.698 -22.255 151.058 C-22.207 148.255 -22.235 145.456 -22.273 142.652 C-22.274 141.152 -22.273 139.652 -22.27 138.152 C-22.271 135.017 -22.291 131.883 -22.328 128.749 C-22.373 124.742 -22.374 120.736 -22.361 116.728 C-22.354 113.634 -22.367 110.54 -22.387 107.445 C-22.395 105.968 -22.397 104.491 -22.394 103.014 C-22.393 100.946 -22.418 98.88 -22.451 96.812 C-22.455 96.225 -22.455 96.225 -22.479 93.256 C-23.108 89.323 -24.613 87.147 -27 84 C-27.481 83.276 -27.962 82.551 -28.457 81.805 C-32.428 76.152 -36.075 73.002 -42.938 71.25 C-53.291 70.405 -60.254 71.314 -67.625 79 Z "  transform="translate(1990,72)"/>
<path fill="#000000" d="M0 0 C3.826 1.957 5.801 4.653 7.938 8.375 C9.813 14.774 8.07 20.172 5.289 26.043 C3.116 29.342 0.744 30.064 -3 31 C-7.199 31.633 -10.305 31.341 -14.188 29.438 C-18.562 25.646 -21.907 21.855 -23.125 16.062 C-23.391 11.909 -22.037 9.167 -19.641 5.836 C-13.994 -0.482 -8.241 -2.485 0 0 Z "  transform="translate(1138,76)"/>
<path fill="#000000" d="M0 0 C4.256 2.343 7.307 4.961 10 9 C11.048 14.581 10.412 19.091 7.438 23.938 C4.022 28.465 0.664 30.445 -5.012 31.305 C-8.545 31.534 -11.026 30.989 -14.25 29.562 C-18.827 25.297 -20.694 20.537 -21.438 14.375 C-20.752 9.088 -19.402 5.332 -15.5 1.625 C-10.399 -1.691 -5.755 -1.403 0 0 Z "  transform="translate(1292,76)"/>
<path fill="#000000" d="M0 0 C4.343 2.348 7.395 4.654 9.312 9.25 C10.664 15.931 8.54 20.479 5.016 26.086 C2.661 29.078 0.778 30.956 -3.02 31.719 C-8.342 31.786 -12.118 31.349 -16.281 27.863 C-19.757 23.876 -20.824 19.257 -21 14.062 C-20.564 8.742 -19.732 5.963 -15.688 2.5 C-10.652 -1.277 -6.014 -1.678 0 0 Z "  transform="translate(2054.6875,75.75)"/>
<path fill="#000000" d="M0 0 C2.586 1.166 4.305 1.299 7.113 0.953 C8.585 -0.327 10.056 -1.609 11.488 -2.934 C14.23 -4.812 16.933 -4.365 20.113 -4.047 C22.027 -0.81 22.366 1.594 22.372 5.333 C22.378 6.407 22.385 7.481 22.391 8.588 C22.389 9.165 22.389 9.165 22.379 12.086 C22.381 13.274 22.383 14.462 22.385 15.686 C22.386 18.196 22.382 20.706 22.374 23.216 C22.363 27.07 22.374 30.924 22.387 34.777 C22.385 37.214 22.383 39.65 22.379 42.086 C22.383 43.244 22.387 44.403 22.391 45.596 C22.388 46.13 22.388 46.13 22.372 48.833 C22.37 49.775 22.369 50.718 22.367 51.689 C22.113 53.953 22.113 53.953 20.113 55.953 C17.801 56.391 17.801 56.391 15.113 55.953 C10.275 52.072 8.978 48.472 7.551 42.703 C7.131 41.175 6.708 39.647 6.281 38.121 C6.081 37.396 5.88 36.671 5.673 35.923 C3.451 28.107 -0.122 23.136 -5.715 17.25 C-7.468 15.396 -9.031 13.54 -10.574 11.516 C-15.668 5.872 -22.532 4.435 -29.887 3.953 C-39.516 4.182 -48.325 5.366 -56.887 9.953 C-57.547 9.953 -58.207 9.953 -58.887 9.953 C-59.052 10.448 -59.052 10.448 -59.887 12.953 C-61.559 14.566 -61.559 14.566 -63.637 16.266 C-69.728 21.252 -73.496 26.405 -76.512 33.578 C-76.812 34.28 -77.112 34.981 -77.421 35.704 C-79.897 41.655 -81.664 47.62 -82.887 53.953 C-83.053 54.706 -83.219 55.459 -83.391 56.235 C-85.013 64.092 -85.254 71.759 -85.262 79.766 C-85.286 81.03 -85.311 82.293 -85.336 83.596 C-85.364 92.684 -83.717 100.353 -80.887 108.953 C-80.537 110.188 -80.187 111.422 -79.827 112.695 C-78.454 117.454 -76.192 121.59 -73.887 125.953 C-73.579 126.596 -73.271 127.24 -72.953 127.902 C-70.684 132.389 -67.693 135.085 -63.871 138.195 C-61.97 139.879 -60.711 141.511 -59.262 143.578 C-53.759 150.308 -43.101 152.034 -34.887 152.953 C-20.316 153.859 -7.1 150.739 4.113 140.953 C5.703 139.129 5.703 139.129 7.051 137.266 C7.552 136.573 8.054 135.881 8.57 135.168 C11.147 131.47 13.642 127.722 16.113 123.953 C16.904 122.765 17.695 121.577 18.488 120.391 C18.756 119.988 18.756 119.988 20.113 117.953 C25.988 118.828 25.988 118.828 27.113 119.953 C27.681 125.937 26.296 129.481 23.426 134.516 C23.256 134.832 23.256 134.832 22.396 136.436 C19.306 142.044 15.653 147.515 10.113 150.953 C9.453 150.953 8.793 150.953 8.113 150.953 C7.872 151.541 7.631 152.129 7.383 152.734 C3.329 159.82 -5.733 163.135 -13.215 165.172 C-31.578 169.079 -57.144 171.004 -73.699 160.266 C-75.105 159.174 -76.5 158.069 -77.887 156.953 C-78.816 156.328 -79.746 155.703 -80.703 155.059 C-88.664 149.579 -94.199 143.3 -99.786 135.486 C-100.665 134.262 -101.581 133.064 -102.508 131.875 C-106.847 125.874 -108.398 118.33 -110.253 111.265 C-110.691 109.668 -111.169 108.083 -111.68 106.509 C-114.171 98.503 -114.523 90.646 -114.512 82.328 C-114.514 81.611 -114.515 80.893 -114.517 80.154 C-114.485 65.993 -111.942 53.228 -106.887 39.953 C-106.759 39.614 -106.759 39.614 -106.111 37.897 C-103.315 30.813 -99.156 25.592 -93.914 20.133 C-91.887 17.953 -91.887 17.953 -89.824 14.703 C-81.227 2.5 -62.204 -5.046 -48.105 -7.539 C-31.587 -9.769 -14.607 -8.614 0 0 Z "  transform="translate(1625.88671875,90.046875)"/>
<path fill="#000000" d="M0 0 C0.345 -0.002 0.345 -0.002 2.089 -0.01 C4.379 -0.02 6.669 -0.022 8.959 -0.023 C10.545 -0.026 12.13 -0.029 13.716 -0.033 C17.044 -0.039 20.372 -0.041 23.701 -0.04 C27.973 -0.04 32.244 -0.054 36.516 -0.071 C39.793 -0.082 43.069 -0.084 46.345 -0.083 C47.92 -0.085 49.496 -0.089 51.071 -0.097 C53.271 -0.107 55.471 -0.104 57.672 -0.098 C58.926 -0.099 60.18 -0.101 61.471 -0.102 C64.401 0.145 64.401 0.145 66.401 2.145 C66.588 5.208 66.588 5.208 66.401 8.145 C64.655 9.891 62.088 9.687 59.713 10.02 C53.876 10.956 48.106 12.143 44.401 17.145 C41.995 22.67 42.127 27.867 42.161 33.778 C42.159 34.837 42.157 35.897 42.155 36.988 C42.151 39.285 42.152 41.581 42.157 43.878 C42.162 47.525 42.153 51.171 42.14 54.818 C42.103 65.185 42.084 75.552 42.095 85.919 C42.101 92.267 42.083 98.615 42.049 104.964 C42.041 107.371 42.043 109.779 42.053 112.186 C42.182 142.357 42.182 142.357 33.276 153.458 C32.004 154.708 30.71 155.935 29.401 157.145 C28.608 157.99 27.815 158.834 26.998 159.704 C17.25 169.567 5.93 171.816 -7.572 172.177 C-20.274 172.226 -31.301 169.993 -41.152 161.588 C-43.58 159.168 -45.227 156.32 -46.849 153.333 C-47.021 153.022 -47.021 153.022 -47.89 151.447 C-52.163 143.496 -53.464 136.159 -52.599 127.145 C-50.883 121.725 -48.064 117.587 -44.599 113.145 C-41.677 111.684 -39.041 111.898 -35.787 111.833 C-34.564 111.795 -33.34 111.758 -32.08 111.719 C-27.148 112.323 -24.969 114.423 -21.947 118.223 C-19.588 122.21 -18.537 124.359 -18.912 129.083 C-20.378 133.328 -22.829 137.037 -25.197 140.829 C-27.655 144.89 -28.579 147.973 -28.662 152.708 C-27.47 156.563 -26.037 157.871 -22.732 160.091 C-18.858 162.005 -15.047 162.058 -10.787 162.02 C-9.903 162.016 -9.018 162.011 -8.107 162.007 C-2.48 161.761 1.076 160.879 5.463 157.083 C8.829 153.309 10.89 149.944 12.401 145.145 C12.669 144.599 12.669 144.599 14.026 141.833 C16.928 134.048 16.552 125.489 16.562 117.267 C16.567 116.23 16.572 115.193 16.577 114.124 C16.591 110.729 16.598 107.334 16.604 103.938 C16.607 102.773 16.609 101.608 16.612 100.408 C16.627 94.255 16.637 88.103 16.641 81.95 C16.646 75.597 16.67 69.244 16.699 62.891 C16.717 57.999 16.723 53.106 16.724 48.214 C16.727 45.871 16.735 43.527 16.748 41.184 C16.765 37.915 16.764 34.646 16.757 31.376 C16.766 30.41 16.776 29.443 16.785 28.447 C16.754 23.53 16.642 20.119 13.401 16.145 C8.128 11.894 2.29 10.448 -4.314 9.602 C-6.599 9.145 -6.599 9.145 -8.599 7.145 C-7.869 -0.012 -6.971 0.021 0 0 Z "  transform="translate(696.599365234375,85.854736328125)"/>
<path fill="#000000" d="M0 0 C0.737 0.035 1.475 0.071 2.234 0.107 C7.758 0.445 7.758 0.445 10 2.688 C10.287 5.513 10.287 5.513 10.344 9.086 C10.373 10.37 10.403 11.654 10.434 12.977 C10.457 14.339 10.479 15.701 10.5 17.062 C10.541 19.717 10.595 22.37 10.656 25.023 C10.666 25.614 10.666 25.614 10.713 28.603 C10.987 31.55 11.366 33.25 13 35.688 C15.648 37.012 17.598 36.767 20.559 36.715 C21.667 36.703 22.774 36.69 23.916 36.678 C26.26 36.643 28.604 36.604 30.947 36.561 C32.057 36.55 33.166 36.539 34.309 36.527 C34.818 36.519 34.818 36.519 37.396 36.476 C40 36.688 40 36.688 43 38.688 C43.812 42.125 43.812 42.125 44 45.688 C42 48.688 42 48.688 39.713 49.378 C36.954 49.693 34.36 49.737 31.586 49.645 C30.578 49.623 29.57 49.602 28.531 49.58 C26.419 49.526 24.307 49.461 22.195 49.385 C21.19 49.367 20.184 49.35 19.148 49.332 C18.232 49.305 17.316 49.277 16.373 49.249 C14 49.688 14 49.688 12.376 51.323 C10.602 54.372 10.619 56.442 10.612 59.962 C10.602 61.235 10.593 62.507 10.583 63.819 C10.589 65.209 10.595 66.598 10.602 67.988 C10.6 69.426 10.597 70.864 10.593 72.303 C10.588 75.323 10.595 78.343 10.609 81.364 C10.626 85.191 10.616 89.019 10.598 92.847 C10.587 95.823 10.591 98.8 10.599 101.776 C10.601 103.184 10.598 104.593 10.591 106.001 C10.497 130.088 10.497 130.088 15.381 136.501 C22.83 141.961 31.34 141.202 40 140.062 C40.722 139.946 41.444 139.83 42.188 139.711 C42.786 139.703 43.384 139.695 44 139.688 C44.66 140.347 45.32 141.007 46 141.688 C45.668 147.771 45.668 147.771 43.844 150.273 C36.326 156.039 24.596 156.074 15.562 156.125 C14.64 156.135 13.717 156.145 12.766 156.155 C6.681 156.079 0.257 155.63 -4.489 151.342 C-5.812 149.812 -5.812 149.812 -8 146.688 C-8.557 145.966 -9.114 145.244 -9.688 144.5 C-13.936 135.396 -13.294 124.785 -13.305 114.955 C-13.309 112.353 -13.325 109.752 -13.346 107.15 C-13.401 99.762 -13.432 92.375 -13.456 84.987 C-13.472 80.448 -13.502 75.91 -13.541 71.371 C-13.553 69.645 -13.559 67.919 -13.559 66.193 C-13.559 63.793 -13.577 61.393 -13.599 58.992 C-13.595 58.278 -13.59 57.563 -13.585 56.828 C-13.615 54.853 -13.615 54.853 -14 51.688 C-18.071 48.974 -21.909 49.272 -26.639 49.121 C-31.799 48.888 -31.799 48.888 -34 46.688 C-34.345 42.635 -34.302 41.14 -32 37.688 C-27.442 36.168 -22.922 36.725 -18.152 36.848 C-15 36.688 -15 36.688 -13 34.688 C-11.365 27.603 -11.951 20.008 -12.127 12.797 C-12.233 4.579 -12.233 4.579 -10 0.688 C-6.816 -0.905 -3.467 -0.221 0 0 Z "  transform="translate(1047,100.3125)"/>
<path fill="#000000" d="M0 0 C2.917 -0.276 5.589 -0.372 8.5 -0.312 C8.893 -0.314 8.893 -0.314 10.879 -0.322 C16.733 -0.267 16.733 -0.267 19 2 C20.499 8.975 20.026 16.076 19.873 23.17 C19.868 23.644 19.868 23.644 19.84 26.043 C19.831 26.471 19.831 26.471 19.789 28.637 C20.021 31.235 20.606 32.808 22 35 C24.599 36.3 26.367 36.034 29.27 35.922 C30.323 35.896 31.377 35.87 32.463 35.844 C34.685 35.782 36.906 35.704 39.127 35.609 C48.184 35.433 48.184 35.433 51.266 38.312 C53 41 53 41 52.938 44.25 C52 47 52 47 50 48 C47.992 48.142 45.981 48.226 43.969 48.281 C42.766 48.319 41.563 48.356 40.324 48.395 C37.775 48.465 35.225 48.535 32.676 48.605 C31.473 48.643 30.27 48.68 29.031 48.719 C28.477 48.734 28.477 48.734 25.674 48.811 C23 49 23 49 21 50 C19.804 53.277 19.873 56.497 19.871 59.955 C19.869 60.556 19.869 60.556 19.861 63.598 C19.863 64.896 19.865 66.194 19.867 67.531 C19.867 68.887 19.866 70.242 19.864 71.598 C19.863 74.443 19.865 77.287 19.87 80.132 C19.875 83.745 19.872 87.357 19.866 90.97 C19.862 93.774 19.864 96.578 19.866 99.382 C19.867 101.351 19.864 103.321 19.861 105.29 C19.92 128.171 19.92 128.171 24 134 C28.966 138.705 33.397 140.28 40.188 140.188 C41.233 140.181 42.278 140.175 43.355 140.168 C46 140 46 140 48 139 C50 138.96 52 138.957 54 139 C55.188 141.125 55.188 141.125 56 144 C54.953 147.035 54.953 147.035 53 150 C50.004 151.426 50.004 151.426 46.562 152.312 C45.996 152.465 45.996 152.465 43.129 153.238 C42.096 153.49 41.064 153.741 40 154 C39.366 154.176 38.732 154.352 38.078 154.533 C27.936 156.813 13.986 156.432 5 151 C-1.345 145.785 -2.438 136.593 -3.226 128.748 C-3.591 123.171 -3.582 117.594 -3.574 112.008 C-3.587 110.242 -3.601 108.476 -3.617 106.71 C-3.655 102.118 -3.67 97.525 -3.68 92.933 C-3.7 85.536 -3.756 78.138 -3.809 70.741 C-3.824 68.165 -3.831 65.589 -3.837 63.013 C-3.844 61.448 -3.851 59.882 -3.858 58.317 C-3.858 57.601 -3.857 56.885 -3.857 56.148 C-3.887 51.226 -3.887 51.226 -5 49 C-6.204 48.951 -7.408 48.902 -8.648 48.852 C-10.224 48.777 -11.8 48.701 -13.375 48.625 C-14.169 48.594 -14.963 48.563 -15.781 48.531 C-21.773 48.227 -21.773 48.227 -24 46 C-24.456 42.501 -24.512 40.709 -22.418 37.809 C-19.112 35.336 -17.008 35.694 -12.938 35.938 C-6.477 36.31 -6.477 36.31 -4.327 34.912 C-2.35 32.063 -2.596 29.689 -2.559 26.25 C-2.545 25.595 -2.532 24.941 -2.519 24.267 C-2.478 22.178 -2.456 20.089 -2.438 18 C-2.414 15.911 -2.386 13.822 -2.346 11.733 C-2.31 9.838 -2.29 7.942 -2.271 6.047 C-2 3 -2 3 0 0 Z "  transform="translate(1192,101)"/>
<path fill="#000000" d="M0 0 C0.685 0.035 1.37 0.071 2.076 0.107 C7.194 0.444 7.194 0.444 9.438 2.688 C9.725 5.621 9.725 5.621 9.781 9.34 C9.796 9.996 9.81 10.652 9.826 11.328 C9.872 13.427 9.906 15.526 9.938 17.625 C9.979 20.384 10.032 23.143 10.094 25.902 C10.103 26.517 10.103 26.517 10.15 29.625 C10.438 32.688 10.438 32.688 12.438 35.688 C15.621 36.749 17.757 36.76 21.094 36.68 C22.198 36.663 23.303 36.646 24.441 36.629 C26.772 36.585 29.103 36.533 31.434 36.473 C32.538 36.458 33.643 36.444 34.781 36.43 C35.794 36.408 36.806 36.386 37.85 36.363 C40.438 36.688 40.438 36.688 42.275 37.981 C44.174 40.769 43.675 43.425 43.438 46.688 C43.273 47.017 43.273 47.017 42.438 48.688 C36.836 50.169 30.996 49.763 25.25 49.688 C23.277 49.662 21.305 49.641 19.332 49.625 C18.464 49.613 17.596 49.602 16.702 49.59 C14.438 49.688 14.438 49.688 11.438 50.688 C9.954 53.654 10.277 56.346 10.245 59.656 C10.236 60.374 10.228 61.091 10.22 61.83 C10.195 64.211 10.178 66.592 10.164 68.973 C10.161 69.38 10.161 69.38 10.148 71.44 C10.121 75.756 10.102 80.072 10.087 84.387 C10.074 87.95 10.046 91.512 10.005 95.075 C9.956 99.383 9.931 103.69 9.924 107.998 C9.917 109.634 9.902 111.271 9.878 112.907 C9.643 129.884 9.643 129.884 15.438 136.688 C21.299 141.592 27.027 141.242 34.438 140.688 C35.737 140.481 37.036 140.275 38.375 140.062 C41.75 139.649 43.449 140.148 46.438 141.688 C46.19 145.324 45.981 147.156 43.328 149.75 C34.959 155.359 23.827 156.066 14 156.188 C13.185 156.206 12.369 156.224 11.529 156.243 C3.299 156.159 -3.401 153.287 -9.371 147.641 C-12.795 142.028 -12.855 135.293 -12.834 128.917 C-12.839 128.08 -12.844 127.243 -12.85 126.381 C-12.86 124.579 -12.866 122.778 -12.867 120.976 C-12.871 118.127 -12.888 115.278 -12.908 112.428 C-12.963 104.333 -12.994 96.238 -13.019 88.142 C-13.035 83.179 -13.065 78.216 -13.104 73.253 C-13.115 71.363 -13.121 69.472 -13.121 67.581 C-13.121 64.948 -13.14 62.315 -13.162 59.682 C-13.157 58.898 -13.153 58.113 -13.148 57.305 C-13.177 55.139 -13.177 55.139 -13.562 51.688 C-17.633 48.974 -21.471 49.272 -26.201 49.121 C-31.362 48.888 -31.362 48.888 -33.562 46.688 C-33.907 42.635 -33.864 41.14 -31.562 37.688 C-26.865 36.674 -22.347 36.688 -17.562 36.688 C-17.068 36.523 -17.068 36.523 -14.562 35.688 C-13.123 32.808 -13.379 30.25 -13.316 27.035 C-13.283 25.688 -13.25 24.341 -13.217 22.994 C-13.169 20.87 -13.125 18.746 -13.086 16.621 C-13.046 14.571 -12.994 12.522 -12.941 10.473 C-12.916 9.244 -12.891 8.016 -12.865 6.75 C-12.562 3.688 -12.562 3.688 -10.562 0.688 C-6.918 -0.527 -3.764 -0.26 0 0 Z "  transform="translate(2119.5625,100.3125)"/>
<path fill="#000000" d="M0 0 C2.986 1.621 3.184 2.968 4.188 6.188 C4.675 10.662 4.794 15.148 4.93 19.645 C5 21.814 5.096 23.98 5.193 26.148 C5.241 27.529 5.287 28.909 5.332 30.289 C5.354 30.915 5.354 30.915 5.468 34.081 C5.188 37.188 5.188 37.188 3.678 39.119 C3.186 39.471 2.694 39.824 2.188 40.188 C-0.941 39.257 -2.499 38.621 -4.438 35.938 C-5.338 34.137 -6.214 32.325 -7.062 30.5 C-11.455 22.186 -15.747 15.631 -24.812 12.188 C-31.201 10.506 -39.152 10.283 -45.109 13.383 C-50.042 17.409 -52.492 21.707 -53.312 28.062 C-53.067 32.997 -51.215 36.64 -47.812 40.188 C-44.637 42.273 -41.313 43.731 -37.812 45.188 C-37.055 45.546 -36.297 45.904 -35.516 46.273 C-31.789 48.031 -28.121 49.435 -24.148 50.531 C-18.843 52.098 -13.929 54.195 -8.938 56.562 C-8.11 56.936 -7.282 57.31 -6.43 57.695 C-1.764 59.893 1.286 61.762 4.188 66.188 C4.518 66.61 4.518 66.61 6.188 68.75 C10.708 76.52 13.464 84.319 11.188 93.188 C10.948 94.147 10.708 95.106 10.461 96.094 C7.67 105.703 2.584 113.536 -5.812 119.188 C-12.323 122.184 -18.662 123.917 -25.812 124.188 C-26.287 124.207 -26.287 124.207 -28.688 124.309 C-38.449 124.52 -46.592 123.021 -55.488 118.992 C-58.109 118.085 -60.057 117.942 -62.812 118.188 C-63.638 118.683 -64.462 119.178 -65.312 119.688 C-68.156 121.394 -69.557 121.702 -72.812 121.188 C-74.436 120.154 -74.436 120.154 -75.812 118.188 C-76.111 115.494 -76.233 113.037 -76.211 110.344 C-76.214 109.578 -76.217 108.813 -76.22 108.024 C-76.222 106.407 -76.216 104.79 -76.204 103.172 C-76.188 100.696 -76.203 98.222 -76.223 95.746 C-76.221 94.174 -76.217 92.603 -76.211 91.031 C-76.217 90.291 -76.223 89.55 -76.229 88.787 C-76.16 83.703 -76.16 83.703 -74.474 81.2 C-72.812 80.188 -72.812 80.188 -69.824 80.145 C-66.812 81.188 -66.812 81.188 -65.02 83.699 C-64.789 84.223 -64.789 84.223 -63.625 86.875 C-63.157 87.91 -62.689 88.945 -62.207 90.012 C-61.977 90.536 -61.977 90.536 -60.812 93.188 C-57.344 100.869 -53.013 105.59 -45.688 109.5 C-45.377 109.673 -45.377 109.673 -43.809 110.549 C-37.034 114.286 -31.48 114.999 -23.812 114.188 C-16.673 111.994 -12.499 108.608 -8.812 102.188 C-7.312 97.685 -6.977 94.203 -8.836 89.719 C-13.678 80.836 -19.822 76.972 -29.312 73.938 C-33.807 72.66 -38.303 71.564 -42.91 70.777 C-45.314 70.032 -46.826 68.723 -48.812 67.188 C-50.442 66.342 -52.089 65.531 -53.75 64.75 C-62.145 60.596 -68.27 54.819 -71.688 45.938 C-74.139 37.472 -73.857 28.091 -69.812 20.188 C-63.878 10.848 -56.445 5.252 -45.812 2.188 C-41.277 1.64 -36.814 1.627 -32.25 1.688 C-31.083 1.672 -29.916 1.657 -28.713 1.641 C-21.529 1.673 -16.078 2.597 -9.812 6.188 C-9.326 5.716 -8.84 5.245 -8.339 4.759 C-3.599 0.24 -3.599 0.24 0 0 Z "  transform="translate(991.8125,132.8125)"/>
<path fill="#000000" d="M0 0 C2.513 1.398 4.797 2.92 7.064 4.689 C7.953 5.347 8.843 6.004 9.759 6.682 C11.964 8.602 13.077 9.956 14.314 12.564 C14.628 13.201 14.943 13.838 15.267 14.494 C17.094 19.527 17.181 24.58 17.146 29.885 C17.142 30.578 17.139 31.272 17.136 31.986 C17.129 33.482 17.12 34.978 17.108 36.475 C17.091 38.846 17.081 41.217 17.072 43.588 C17.048 50.327 17.012 57.066 16.968 63.805 C16.941 67.935 16.924 72.066 16.913 76.197 C16.907 77.766 16.897 79.335 16.883 80.904 C16.864 83.101 16.857 85.297 16.853 87.494 C16.845 88.742 16.838 89.989 16.83 91.275 C17.172 96.275 17.857 99.6 21.626 103.002 C25.322 104.816 28.054 105.237 32.111 105.416 C34.064 105.689 34.064 105.689 36.064 107.689 C36.384 110.705 36.604 112.799 35.001 115.439 C27.442 120.317 15.765 119.848 7.2 118.107 C1.618 116.053 -0.631 112.795 -3.159 107.518 C-3.415 106.914 -3.672 106.311 -3.936 105.689 C-7.208 105.689 -9.296 106.055 -11.659 108.396 C-12.266 109.091 -12.873 109.786 -13.499 110.502 C-21.009 118.438 -31.98 119.284 -42.421 119.725 C-47.187 119.677 -51.396 119.125 -55.936 117.689 C-56.284 117.595 -56.284 117.595 -58.042 117.119 C-64.038 114.916 -67.314 110.194 -70.425 104.811 C-73.796 97.022 -73.69 85.79 -71.358 77.679 C-67.537 68.079 -60.044 62.095 -50.928 57.846 C-47.636 56.574 -44.339 55.625 -40.936 54.689 C-8.871 45.153 -8.871 45.153 -4.936 38.689 C-3.306 30.412 -5.785 22.839 -9.936 15.689 C-13.113 11.734 -16.06 8.315 -20.936 6.689 C-27.689 6.114 -34.937 6.156 -40.936 9.689 C-43.513 13.574 -42.664 16.175 -41.936 20.689 C-41.52 25.53 -41.209 29.346 -43.561 33.689 C-48.58 37.916 -53.653 38.095 -59.936 37.689 C-62.249 37.127 -62.249 37.127 -63.936 35.689 C-67.068 30.097 -68.002 24.858 -66.397 18.58 C-64.271 12.366 -61.484 8.272 -55.495 5.268 C-53.794 4.478 -52.087 3.703 -50.374 2.939 C-49.511 2.541 -48.648 2.143 -47.759 1.732 C-35.045 -4.096 -13.281 -6.059 0 0 Z M-40.936 69.689 C-42.102 70.545 -43.268 71.4 -44.436 72.252 C-48.987 76.689 -49.059 81.613 -49.249 87.689 C-49.118 92.913 -48.877 96.323 -45.936 100.689 C-40.119 105.896 -33.808 106.413 -26.237 106.104 C-18.285 105.106 -12.324 100.48 -6.936 94.689 C-3.859 85.457 -3.739 74.977 -3.686 65.314 C-3.677 64.488 -3.668 63.662 -3.659 62.811 C-3.689 56.937 -3.689 56.937 -5.936 54.689 C-18.991 52.664 -31.674 61.396 -40.936 69.689 Z "  transform="translate(1403.936279296875,137.310546875)"/>
<path fill="#000000" d="M0 0 C1.231 0.016 2.463 0.032 3.732 0.048 C13.12 0.343 20.06 1.739 28.125 6.75 C28.55 6.955 28.55 6.955 30.703 7.992 C39.567 12.718 43.073 22.97 46.062 32.062 C47.838 39.397 47.746 47.263 47.125 54.75 C46.465 55.74 45.805 56.73 45.125 57.75 C42.165 58.135 42.165 58.135 38.32 58.151 C37.971 58.154 37.971 58.154 36.201 58.172 C33.884 58.192 31.567 58.191 29.25 58.191 C27.643 58.203 26.037 58.217 24.43 58.231 C20.196 58.268 15.962 58.288 11.728 58.303 C4.95 58.328 -1.828 58.367 -8.606 58.425 C-10.978 58.441 -13.35 58.445 -15.722 58.448 C-17.172 58.458 -18.621 58.468 -20.07 58.479 C-21.339 58.483 -22.608 58.487 -23.915 58.492 C-26.875 58.75 -26.875 58.75 -28.875 60.75 C-29.815 73.523 -25.647 88.82 -17.32 98.57 C-15.599 100.209 -13.877 101.47 -11.875 102.75 C-11.142 103.235 -10.408 103.719 -9.652 104.219 C-0.367 109.385 11.488 109.569 21.617 106.793 C27.722 104.187 31.914 100.879 35.762 95.434 C40.475 88.9 40.475 88.9 44.375 88 C47.228 88.778 48.371 89.411 50.125 91.75 C47.948 101.185 40.431 107.929 33.125 113.75 C32.56 114.224 31.996 114.699 31.414 115.188 C21.392 123.092 7.358 123.498 -4.875 122.75 C-19.972 120.688 -31.117 115.865 -41.062 104.062 C-53.789 87.229 -55.925 67.408 -53.406 46.941 C-51.145 35.732 -45.534 25.927 -38.875 16.75 C-38.477 16.174 -38.078 15.598 -37.668 15.004 C-35.005 11.432 -32.303 9.614 -28.313 7.883 C-25.875 6.75 -25.875 6.75 -23.304 5.269 C-15.409 0.829 -8.985 -0.21 0 0 Z M-22.188 21.25 C-26.556 27.722 -29.034 35.373 -28.75 43.188 C-27.875 45.75 -27.875 45.75 -26.098 46.894 C-23.705 47.816 -21.986 48.003 -19.429 48.009 C-18.559 48.015 -17.688 48.021 -16.79 48.028 C-15.858 48.024 -14.925 48.02 -13.965 48.016 C-13.001 48.018 -12.037 48.019 -11.044 48.021 C-9.009 48.023 -6.974 48.019 -4.939 48.011 C-1.821 48 1.297 48.011 4.416 48.023 C6.393 48.022 8.37 48.02 10.348 48.016 C11.282 48.02 12.216 48.024 13.179 48.028 C13.613 48.025 13.613 48.025 15.809 48.009 C16.572 48.007 17.335 48.006 18.121 48.004 C20.125 47.75 20.125 47.75 23.125 45.75 C25.513 38.587 24.188 30.936 20.902 24.27 C17.508 18.287 13.411 11.442 6.75 8.812 C5.884 8.792 5.017 8.771 4.125 8.75 C3.444 8.702 2.764 8.655 2.062 8.605 C-8.679 8.116 -15.222 13.72 -22.188 21.25 Z "  transform="translate(1818.875,134.25)"/>
<path fill="#000000" d="M0 0 C1.435 -0.011 2.871 -0.032 4.306 -0.062 C18.7 -0.358 18.7 -0.358 24.914 4.295 C27.136 5.201 27.136 5.201 28.976 5.795 C36.907 8.688 41.68 13.886 46.914 20.295 C47.464 20.928 48.014 21.561 48.582 22.213 C58.841 35.427 59.642 55.363 57.914 71.295 C56.856 77.494 55.058 83.395 52.914 89.295 C52.591 90.228 52.269 91.162 51.937 92.123 C49.711 97.815 46.133 101.941 41.914 106.295 C41.109 107.161 40.305 108.028 39.476 108.92 C26.544 120.906 12.57 122.935 -4.579 122.619 C-19.555 121.982 -29.592 116.727 -40.086 106.295 C-40.821 105.603 -41.556 104.911 -42.313 104.198 C-44.059 102.324 -45.077 100.731 -46.149 98.42 C-46.314 98.072 -46.314 98.072 -47.149 96.311 C-47.458 95.646 -47.768 94.98 -48.086 94.295 C-48.602 93.264 -49.118 92.233 -49.649 91.17 C-50.123 90.221 -50.598 89.273 -51.086 88.295 C-51.602 87.388 -52.118 86.48 -52.649 85.545 C-56.044 77.87 -56.449 69.714 -56.399 61.42 C-56.396 60.937 -56.396 60.937 -56.384 58.493 C-56.267 51.389 -55.532 45.008 -53.086 38.295 C-52.758 37.318 -52.429 36.341 -52.09 35.334 C-47.328 22.514 -39.15 11.85 -26.663 6.061 C-25.916 5.726 -25.169 5.39 -24.399 5.045 C-23.64 4.695 -22.882 4.344 -22.1 3.983 C-14.576 0.53 -8.222 0.046 0 0 Z M-20.047 18.373 C-32.883 33.862 -31.203 57.676 -29.809 76.682 C-28.667 87.261 -26.168 97.449 -17.993 104.764 C-10.172 111.046 -6.083 113.793 4.23 113.698 C11.596 112.893 16.646 108.896 21.664 103.67 C34.427 87.777 35.779 67.474 33.654 47.908 C31.863 35.511 27.084 20.769 16.976 12.67 C4.275 4.365 -10.048 7.776 -20.047 18.373 Z "  transform="translate(2232.08642578125,134.704833984375)"/>
<path fill="#000000" d="M0 0 C2.312 2.312 2.273 2.932 2.5 6.062 C2.582 6.712 2.582 6.712 3 10 C3.66 10.33 4.32 10.66 5 11 C7.102 9.961 7.102 9.961 9.625 8.375 C10.513 7.822 11.401 7.269 12.316 6.699 C13.202 6.138 14.088 5.578 15 5 C15.793 4.511 16.586 4.023 17.402 3.52 C22.823 0.177 22.823 0.177 24 -1 C39.251 -2.397 39.251 -2.397 44.938 0.492 C48.651 3.783 50.892 6.244 51.203 11.301 C51.224 12.638 51.24 13.975 51.25 15.312 C51.276 16.629 51.302 17.945 51.328 19.301 C50.916 23.946 49.502 26.443 46.312 29.75 C42.986 31.548 39.738 32.123 36 32 C31.83 30.476 28.722 28.529 26 25 C25.312 22.062 25.312 22.062 25 19 C24.674 17.332 24.343 15.665 24 14 C19.309 13.498 17.145 14.898 13.438 17.688 C12.508 18.372 11.579 19.056 10.621 19.762 C7.062 22.801 4.49 25.53 3 30 C2.9 32.233 2.862 34.468 2.855 36.703 C2.851 37.38 2.848 38.056 2.845 38.754 C2.835 40.991 2.833 43.228 2.832 45.465 C2.829 47.02 2.825 48.576 2.822 50.131 C2.816 53.392 2.814 56.653 2.815 59.914 C2.815 64.091 2.801 68.269 2.784 72.446 C2.773 75.659 2.771 78.872 2.771 82.085 C2.77 83.625 2.766 85.165 2.758 86.705 C2.748 88.859 2.751 91.013 2.757 93.168 C2.756 94.393 2.754 95.619 2.753 96.882 C2.991 99.884 3.321 101.535 5 104 C9.355 106.831 13.682 107.631 18.73 108.375 C21.332 109.091 22.404 109.84 24 112 C23.579 116.421 23.579 116.421 22 118 C20.2 118.104 18.397 118.139 16.594 118.145 C15.439 118.152 14.285 118.158 13.095 118.165 C11.838 118.166 10.58 118.167 9.285 118.168 C8.004 118.171 6.723 118.175 5.403 118.178 C2.687 118.184 -0.03 118.186 -2.746 118.185 C-6.231 118.185 -9.716 118.199 -13.201 118.216 C-16.518 118.23 -19.835 118.229 -23.152 118.23 C-24.408 118.238 -25.663 118.245 -26.956 118.252 C-28.114 118.249 -29.272 118.246 -30.465 118.243 C-31.488 118.244 -32.51 118.246 -33.564 118.247 C-36 118 -36 118 -38 116 C-37.625 112.875 -37.625 112.875 -37 110 C-36.313 109.818 -35.626 109.636 -34.918 109.449 C-34.017 109.198 -33.116 108.946 -32.188 108.688 C-31.294 108.444 -30.401 108.2 -29.48 107.949 C-26.19 106.69 -24.577 105.221 -23.066 102.022 C-20.728 94.57 -20.549 87.469 -20.566 79.699 C-20.562 78.332 -20.557 76.965 -20.551 75.598 C-20.542 72.746 -20.544 69.895 -20.554 67.043 C-20.565 63.426 -20.545 59.809 -20.516 56.192 C-20.498 53.372 -20.498 50.552 -20.504 47.731 C-20.504 45.762 -20.487 43.792 -20.47 41.822 C-20.55 31.378 -21.716 20.995 -29 13 C-31.07 12.145 -31.07 12.145 -33.125 11.812 C-37 11 -37 11 -39 9 C-38.444 4.444 -38.444 4.444 -37 3 C-30.428 1.517 -24.096 0.883 -17.379 1.066 C-14.86 0.996 -12.69 0.553 -10.25 -0.062 C-6.531 -0.991 -3.752 -1.098 0 0 Z "  transform="translate(2345,136)"/>
<path fill="#000000" d="M0 0 C3.992 3.992 3.047 11.149 3.058 16.523 C3.047 19.415 3.018 22.306 2.983 25.198 C2.956 27.588 2.939 29.979 2.924 32.37 C2.882 39.162 2.834 45.955 2.753 52.747 C2.704 56.92 2.676 61.092 2.659 65.266 C2.65 66.839 2.633 68.412 2.608 69.985 C2.447 80.328 2.922 90.327 7 100 C9.477 102.44 11.755 103.806 15 105 C15.33 105.165 15.33 105.165 17 106 C25.05 106.777 31.893 105.984 39 102 C41.5 99.75 41.5 99.75 43 98 C43.66 98 44.32 98 45 98 C45.268 97.423 45.536 96.845 45.812 96.25 C47 94 47 94 48.547 92.276 C50.514 89.196 50.401 86.98 50.436 83.339 C50.441 83.009 50.441 83.009 50.466 81.337 C50.495 79.157 50.501 76.977 50.504 74.797 C50.514 73.275 50.524 71.753 50.534 70.231 C50.552 67.04 50.558 63.849 50.556 60.658 C50.556 56.584 50.596 52.512 50.648 48.439 C50.682 45.294 50.688 42.149 50.686 39.004 C50.69 37.503 50.703 36.003 50.726 34.502 C50.925 20.397 50.925 20.397 45.591 14.299 C43.1 12.266 40.978 11.961 37.812 11.812 C34.707 11.645 34.707 11.645 32 11 C30.137 8.449 30.137 8.449 29 6 C32.202 2.052 35.948 2.042 40.75 1.332 C44.597 0.939 48.335 0.968 52.195 1.074 C56.329 0.965 60.253 0.071 64.273 -0.855 C67.933 -1.049 69.222 -0.389 72 2 C72.5 5 72.661 7.441 72.612 10.444 C72.617 11.306 72.623 12.168 72.629 13.056 C72.643 15.914 72.622 18.771 72.602 21.629 C72.607 23.618 72.615 25.608 72.626 27.598 C72.649 32.846 72.644 38.095 72.632 43.344 C72.614 51.72 72.624 60.096 72.658 68.472 C72.664 71.389 72.651 74.305 72.636 77.222 C72.621 96.307 72.621 96.307 76 102 C78.53 103.927 81.007 104.968 84 106 C85.337 106.575 86.67 107.158 88 107.75 C88.99 108.162 89.98 108.575 91 109 C91.188 111.875 91.188 111.875 91 115 C87.517 117.322 85.952 117.298 81.828 117.414 C80.606 117.453 79.384 117.491 78.125 117.531 C76.846 117.562 75.567 117.593 74.25 117.625 C72.987 117.664 71.723 117.702 70.422 117.742 C64.612 117.913 58.812 118.018 53 118 C51.783 115.566 51.68 113.582 51.438 110.875 C51.354 109.965 51.27 109.055 51.184 108.117 C51.123 107.419 51.062 106.72 51 106 C48.648 105.832 48.648 105.832 46 106 C44.75 107.415 43.508 108.842 42.363 110.344 C36.257 117.762 27.376 119.791 18.196 120.711 C8.387 121.488 -0.649 120.548 -9 115 C-11 112.875 -11 112.875 -13 110 C-13.207 109.715 -13.207 109.715 -14.254 108.273 C-24.611 92.259 -21.227 69.479 -20.9 51.372 C-20.839 47.977 -20.786 44.583 -20.754 41.188 C-20.728 38.664 -20.686 36.141 -20.624 33.618 C-20.557 25.932 -21.151 20.291 -26.481 14.35 C-28.545 12.516 -30.539 12.035 -33.188 11.312 C-34.089 11.061 -34.99 10.81 -35.918 10.551 C-36.605 10.369 -37.292 10.187 -38 10 C-38.625 7.625 -38.625 7.625 -39 5 C-36.665 2.665 -35.992 2.695 -32.812 2.438 C-29.967 2.183 -27.203 1.876 -24.375 1.438 C-21 1 -21 1 -17.625 1.062 C-14.556 1.01 -12.309 0.666 -9.375 -0.062 C-5.926 -0.891 -3.427 -1.246 0 0 Z "  transform="translate(811,136)"/>
<path fill="#000000" d="M0 0 C2.704 2.704 2.235 4.804 2.246 8.476 C2.238 9.387 2.231 10.297 2.224 11.236 C2.224 11.715 2.224 11.715 2.225 14.138 C2.225 16.223 2.221 18.308 2.213 20.393 C2.203 23.692 2.208 26.991 2.219 30.29 C2.247 39.672 2.259 49.053 2.23 58.435 C2.213 64.17 2.226 69.903 2.256 75.637 C2.263 77.824 2.258 80.011 2.242 82.198 C2.22 85.258 2.235 88.316 2.259 91.376 C2.251 91.829 2.251 91.829 2.212 94.117 C2.311 100.121 2.311 100.121 4.307 102.667 C7.003 104.974 9.797 106.61 13.188 107.625 C16.206 108.542 18.014 109.493 20 112 C19.812 114.625 19.812 114.625 19 117 C16.508 118.246 14.819 118.134 12.031 118.145 C10.997 118.152 9.962 118.158 8.896 118.165 C7.776 118.166 6.655 118.167 5.5 118.168 C4.927 118.17 4.927 118.17 2.025 118.178 C-0.402 118.183 -2.83 118.185 -5.258 118.185 C-8.984 118.187 -12.711 118.206 -16.438 118.225 C-18.792 118.228 -21.146 118.23 -23.5 118.23 C-24.06 118.234 -24.06 118.234 -26.896 118.252 C-27.931 118.249 -28.965 118.246 -30.031 118.243 C-30.945 118.244 -31.858 118.246 -32.799 118.247 C-35 118 -35 118 -37 116 C-36.938 113.562 -36.938 113.562 -36 111 C-33.046 108.583 -30.543 107.922 -26.875 107.375 C-24.912 106.891 -24.912 106.891 -23 106 C-19.165 97.984 -19.526 89.608 -19.531 80.906 C-19.524 79.349 -19.516 77.791 -19.508 76.234 C-19.495 72.983 -19.493 69.732 -19.499 66.481 C-19.505 62.335 -19.474 58.19 -19.434 54.045 C-19.408 50.832 -19.405 47.621 -19.409 44.408 C-19.407 42.881 -19.398 41.353 -19.38 39.825 C-19.274 29.676 -20.12 22.298 -27.188 14.625 C-31.231 12.289 -35.496 11.154 -40 10 C-40.625 7.625 -40.625 7.625 -41 5 C-36.748 0.748 -28.048 1.06 -22.238 0.945 C-20.642 0.981 -19.045 1.022 -17.449 1.066 C-13.689 0.964 -10.108 0.157 -6.445 -0.66 C-3.897 -1.014 -2.392 -0.906 0 0 Z "  transform="translate(1142,136)"/>
<path fill="#000000" d="M0 0 C2.593 4.452 2.25 9.036 2.179 14.025 C2.175 14.925 2.17 15.825 2.166 16.752 C2.155 18.701 2.139 20.65 2.12 22.599 C2.09 25.684 2.073 28.769 2.06 31.854 C2.02 40.624 1.955 49.394 1.884 58.164 C1.841 63.531 1.813 68.899 1.793 74.267 C1.783 76.312 1.766 78.356 1.744 80.401 C1.713 83.259 1.7 86.116 1.691 88.975 C1.677 89.818 1.663 90.662 1.649 91.532 C1.656 96.185 1.976 99.219 5 103 C7.121 104.293 7.121 104.293 9.438 105.188 C10.199 105.49 10.961 105.793 11.746 106.105 C12.49 106.401 13.234 106.696 14 107 C16.23 107.926 16.23 107.926 18 109 C18.875 112 18.875 112 19 115 C16.424 117.576 15.427 117.253 11.848 117.259 C10.773 117.265 9.699 117.271 8.592 117.278 C7.427 117.274 6.262 117.27 5.062 117.266 C3.871 117.268 2.68 117.269 1.453 117.271 C-1.069 117.273 -3.59 117.269 -6.112 117.261 C-9.984 117.25 -13.855 117.261 -17.727 117.273 C-20.172 117.272 -22.617 117.27 -25.062 117.266 C-25.645 117.268 -25.645 117.268 -28.592 117.278 C-29.129 117.275 -29.129 117.275 -31.848 117.259 C-32.322 117.258 -32.322 117.258 -34.723 117.254 C-37 117 -37 117 -39 115 C-39 112.562 -39 112.562 -38 110 C-34.852 108.051 -31.853 106.955 -28.312 105.875 C-24.456 103.692 -23.831 102.062 -22.583 97.915 C-21.348 91.739 -21.528 85.434 -21.531 79.16 C-21.524 77.628 -21.516 76.095 -21.508 74.562 C-21.495 71.363 -21.493 68.163 -21.499 64.963 C-21.505 60.887 -21.474 56.812 -21.434 52.736 C-21.408 49.574 -21.405 46.413 -21.409 43.251 C-21.407 41.749 -21.398 40.248 -21.38 38.746 C-21.293 30.614 -21.623 23.959 -25.927 16.821 C-27 15 -27 15 -27 13 C-27.915 12.818 -28.83 12.636 -29.773 12.449 C-30.962 12.198 -32.15 11.946 -33.375 11.688 C-34.558 11.444 -35.742 11.2 -36.961 10.949 C-40 10 -40 10 -42 7 C-41.483 3.483 -41.483 3.483 -40 2 C-32.824 0.497 -25.875 -0.121 -18.562 0.07 C-15.951 -0.001 -13.768 -0.453 -11.25 -1.125 C-6.979 -2.191 -4.071 -1.911 0 0 Z "  transform="translate(1298,137)"/>
<path fill="#000000" d="M0 0 C4.232 2.915 6.725 6.45 9 11 C9.748 17.151 10.015 22.466 6.25 27.625 C3.118 31.373 0.442 32.869 -4.438 33.312 C-9.664 32.854 -11.869 31.319 -15.25 27.375 C-17.407 23.216 -17.794 19.626 -18 15 C-21.354 14.398 -23.405 14.623 -26.297 16.453 C-29.236 18.739 -32.077 21.028 -34.645 23.73 C-36 25 -36 25 -38 25 C-39.158 28.697 -39.154 32.218 -39.193 36.076 C-39.201 36.78 -39.209 37.485 -39.218 38.211 C-39.242 40.535 -39.259 42.859 -39.273 45.184 C-39.276 45.581 -39.276 45.581 -39.29 47.594 C-39.316 51.801 -39.336 56.009 -39.35 60.216 C-39.363 63.695 -39.391 67.174 -39.432 70.654 C-39.481 74.86 -39.506 79.066 -39.513 83.272 C-39.52 84.873 -39.535 86.474 -39.559 88.074 C-39.591 90.315 -39.591 92.554 -39.583 94.795 C-39.592 96.068 -39.6 97.342 -39.608 98.654 C-38.837 102.896 -37.326 104.345 -34 107 C-31.027 108.039 -31.027 108.039 -27.938 108.625 C-23.822 109.424 -21.19 110.231 -18 113 C-18.875 117.875 -18.875 117.875 -20 119 C-21.794 119.109 -23.593 119.149 -25.39 119.161 C-26.542 119.171 -27.693 119.18 -28.879 119.19 C-30.133 119.194 -31.388 119.199 -32.68 119.203 C-33.959 119.209 -35.237 119.215 -36.555 119.22 C-39.267 119.231 -41.979 119.237 -44.691 119.24 C-48.167 119.246 -51.643 119.27 -55.119 119.298 C-58.431 119.321 -61.743 119.323 -65.055 119.328 C-66.305 119.34 -67.555 119.353 -68.843 119.366 C-70 119.363 -71.158 119.36 -72.351 119.356 C-72.861 119.358 -72.861 119.358 -75.444 119.367 C-78 119 -78 119 -79.849 117.603 C-81 116 -81 116 -81.062 114 C-79.205 110.504 -75.662 109.659 -72.117 108.254 C-68.606 106.836 -67.162 106.243 -65 103 C-64.791 100.446 -64.696 97.998 -64.694 95.443 C-64.685 94.675 -64.677 93.907 -64.668 93.116 C-64.644 90.573 -64.636 88.031 -64.629 85.488 C-64.62 83.718 -64.611 81.948 -64.602 80.178 C-64.585 76.463 -64.577 72.748 -64.574 69.033 C-64.569 64.287 -64.531 59.54 -64.486 54.794 C-64.456 51.135 -64.449 47.476 -64.448 43.817 C-64.444 42.068 -64.431 40.319 -64.41 38.57 C-64.222 21.485 -64.222 21.485 -70 15 C-72.605 13.633 -72.605 13.633 -75.188 13.125 C-79.872 12.128 -79.872 12.128 -82 10 C-81.444 5.444 -81.444 5.444 -80 4 C-77.165 3.619 -74.344 3.29 -71.5 3 C-70.721 2.917 -69.943 2.835 -69.141 2.75 C-67.558 2.582 -65.976 2.417 -64.393 2.253 C-62.008 2.001 -59.625 1.73 -57.242 1.457 C-54.036 1.102 -50.851 0.787 -47.625 0.688 C-46.813 0.65 -46.001 0.613 -45.164 0.574 C-43 1 -43 1 -41.223 2.785 C-39.506 5.894 -39.799 8.514 -40 12 C-36.265 11.767 -34.162 10.504 -31.312 8.25 C-22.024 1.129 -11.854 -3.137 0 0 Z "  transform="translate(1747,135)"/>
<path fill="#000000" d="M0 0 C0.755 -0.037 1.511 -0.075 2.289 -0.113 C4.375 0.312 4.375 0.312 5.982 1.765 C8.083 5.607 7.782 9.188 7.744 13.5 C7.748 14.429 7.751 15.358 7.755 16.315 C7.762 18.33 7.761 20.346 7.755 22.361 C7.746 25.552 7.756 28.741 7.772 31.931 C7.812 41.001 7.813 50.07 7.811 59.139 C7.811 64.688 7.83 70.236 7.86 75.784 C7.871 78.927 7.859 82.069 7.846 85.212 C7.855 87.14 7.865 89.068 7.877 90.996 C7.867 91.869 7.857 92.743 7.847 93.643 C7.895 97.707 8.052 99.795 10.252 103.318 C12.595 105.519 14.396 106.389 17.438 107.375 C21.329 108.645 23.275 109.724 25.375 113.312 C25.188 115.5 25.188 115.5 24.375 117.312 C21.909 118.545 20.271 118.446 17.514 118.458 C17.008 118.461 17.008 118.461 14.45 118.477 C13.902 118.478 13.902 118.478 11.129 118.48 C10.007 118.484 8.885 118.487 7.729 118.491 C5.352 118.496 2.976 118.498 0.599 118.498 C-3.044 118.5 -6.687 118.518 -10.33 118.537 C-12.635 118.54 -14.941 118.542 -17.246 118.543 C-17.793 118.547 -17.793 118.547 -20.561 118.565 C-21.575 118.562 -22.589 118.559 -23.635 118.555 C-24.528 118.557 -25.421 118.558 -26.342 118.56 C-28.625 118.312 -28.625 118.312 -31.625 116.312 C-31.688 114.062 -31.688 114.062 -30.625 111.312 C-27.77 109.629 -24.705 108.519 -21.625 107.312 C-17.86 105.39 -16.118 104.27 -14.625 100.312 C-14.344 97 -14.344 97 -14.303 93.009 C-14.293 92.28 -14.283 91.551 -14.273 90.8 C-14.243 88.392 -14.23 85.985 -14.219 83.578 C-14.207 81.899 -14.196 80.22 -14.184 78.541 C-14.163 75.02 -14.152 71.5 -14.145 67.979 C-14.134 63.482 -14.086 58.987 -14.029 54.49 C-13.991 51.02 -13.981 47.551 -13.978 44.082 C-13.972 42.425 -13.956 40.768 -13.929 39.111 C-13.698 23.474 -13.698 23.474 -19.104 17.633 C-22.454 14.725 -25.668 13.294 -29.812 11.875 C-33.432 10.593 -33.432 10.593 -35.125 8.125 C-35.29 7.527 -35.455 6.929 -35.625 6.312 C-32.429 2.371 -28.697 2.357 -23.902 1.648 C-19.942 1.242 -16.073 1.202 -12.098 1.34 C-8.006 1.295 -4.108 0.134 0 0 Z "  transform="translate(2053.625,135.6875)"/>
</svg>